<?xml version="1.0" standalone="no"?>
<!DOCTYPE svg PUBLIC "-//W3C//DTD SVG 20010904//EN"
 "http://www.w3.org/TR/2001/REC-SVG-20010904/DTD/svg10.dtd">
<svg version="1.0" xmlns="http://www.w3.org/2000/svg"
 width="1536.000000pt" height="1024.000000pt" viewBox="0 0 1536.000000 1024.000000"
 preserveAspectRatio="xMidYMid meet">

<g transform="translate(0.000000,1024.000000) scale(0.100000,-0.100000)"
fill="#000000" stroke="none">
<path d="M680 10234 c0 -5 75 -104 113 -148 18 -21 18 -20 14 35 -3 31 -13 71
-21 88 -15 28 -21 31 -61 31 -25 0 -45 -3 -45 -6z"/>
<path d="M987 10178 c-29 -68 -52 -171 -43 -194 12 -31 -10 -11 -26 24 -10 21
-24 46 -33 57 -13 18 -13 15 -1 -25 8 -25 22 -99 31 -165 10 -66 28 -147 41
-180 13 -33 34 -96 48 -140 16 -50 47 -113 84 -170 49 -76 76 -105 168 -179
139 -114 160 -135 72 -74 -14 10 -37 18 -50 18 -12 0 -38 9 -57 21 -18 11 -35
18 -37 16 -9 -9 109 -107 237 -197 121 -85 209 -153 279 -218 38 -36 97 -63
179 -84 40 -10 89 -28 108 -39 64 -40 96 -126 54 -148 -17 -9 -20 -5 -30 35
-13 50 -58 104 -87 104 -16 0 -16 -1 -1 -18 26 -28 46 -85 40 -114 -3 -15 -16
-34 -29 -42 l-23 -16 6 49 c5 43 3 52 -20 74 -24 25 -111 57 -151 57 -14 0 -7
-7 21 -20 59 -26 93 -63 93 -99 0 -64 -58 -78 -149 -36 -37 18 -90 60 -170
139 -132 129 -140 134 -456 268 -330 140 -468 222 -479 282 -3 17 -8 76 -11
131 -3 55 -11 118 -17 140 -14 57 -65 148 -100 181 l-30 29 6 -30 c3 -16 13
-70 21 -119 9 -49 18 -93 21 -97 7 -11 7 -11 -117 2 -109 11 -227 37 -313 70
-28 10 -54 19 -58 19 -5 0 -8 -79 -8 -177 0 -170 1 -176 18 -160 10 10 29 40
42 67 13 28 27 50 31 50 4 0 53 -19 110 -41 103 -41 222 -65 267 -54 24 6 24
6 1 -84 -9 -37 -5 -51 16 -51 13 0 53 -20 230 -115 44 -24 168 -80 275 -125
107 -45 251 -110 320 -146 105 -55 138 -78 215 -153 104 -101 162 -129 280
-138 127 -9 273 36 319 99 30 41 25 113 -10 178 -37 67 -98 108 -219 146 -89
28 -92 30 -208 138 -65 61 -132 121 -149 134 l-31 22 39 0 c21 0 58 -5 81 -10
24 -6 75 -15 115 -20 123 -17 124 -18 158 -71 62 -96 190 -169 297 -169 87 0
138 22 168 75 33 55 32 107 -1 173 -69 138 -299 316 -462 357 -31 8 -140 25
-242 39 -102 13 -198 29 -214 36 -28 10 -29 12 -23 64 10 101 83 203 161 225
46 12 86 2 169 -43 110 -58 175 -46 268 51 69 71 179 254 179 297 0 19 8 19
36 3 44 -26 76 -57 94 -94 22 -44 27 -28 6 21 -15 36 -54 71 -103 91 -18 8
-33 21 -33 29 0 9 2 16 5 16 14 0 106 -52 134 -75 17 -15 31 -22 31 -17 0 17
-62 64 -117 88 -38 17 -53 29 -53 43 0 48 -7 51 -113 51 l-100 0 21 -23 c31
-33 53 -93 46 -125 -14 -56 -79 -102 -146 -102 -27 0 -45 11 -86 50 -44 42
-59 50 -90 50 -43 0 -109 -17 -117 -30 -3 -5 7 -5 25 0 56 16 97 1 143 -50 54
-61 92 -80 162 -80 30 0 55 -2 55 -5 0 -14 -30 -62 -53 -83 -35 -33 -84 -38
-127 -12 -105 62 -158 81 -228 82 -84 1 -143 -23 -200 -80 -40 -40 -72 -112
-72 -165 0 -64 -53 5 -69 89 -5 28 -6 71 0 103 10 64 71 198 116 258 18 24 30
43 27 43 -15 0 -91 -72 -139 -130 -67 -83 -111 -168 -131 -259 -15 -65 -18
-70 -30 -53 -20 29 -62 160 -72 226 -10 63 5 172 31 223 8 15 18 38 21 51 7
20 4 22 -27 22 -32 0 -35 -3 -60 -62z m1148 1 c4 -6 5 -12 2 -15 -7 -7 -37 7
-37 17 0 13 27 11 35 -2z m-7 -38 c18 -11 6 -71 -20 -96 l-21 -20 9 20 c4 11
8 39 9 63 0 44 2 47 23 33z m-378 -811 c210 -37 244 -50 360 -136 142 -104
188 -166 181 -241 -2 -23 -40 -53 -68 -53 -24 0 -25 1 -11 18 25 28 30 69 13
102 -12 24 -111 100 -130 100 -3 0 18 -28 45 -62 28 -34 50 -65 50 -69 0 -3
-9 -18 -21 -33 -51 -64 -139 -13 -249 145 -50 72 -96 112 -178 153 -38 19 -88
51 -112 72 -43 36 -44 37 -15 30 17 -5 77 -16 135 -26z"/>
<path d="M1263 10210 c-39 -29 -63 -57 -90 -107 -16 -31 -10 -29 48 17 28 22
80 56 115 76 35 20 64 38 64 40 0 2 -22 4 -48 4 -38 0 -57 -6 -89 -30z"/>
<path d="M1910 10219 c24 -11 53 -28 64 -37 15 -14 18 -14 14 -2 -7 23 -68 60
-97 60 -22 0 -19 -4 19 -21z"/>
<path d="M4715 10205 c-158 -69 -342 -200 -462 -330 l-78 -84 -160 -31 c-307
-59 -510 -102 -515 -107 -5 -5 14 -4 365 27 276 25 262 25 243 3 -8 -10 -32
-48 -52 -85 -21 -38 -39 -68 -41 -68 -12 0 -562 -107 -690 -135 l-160 -34 105
5 c58 3 193 11 300 19 107 8 239 17 293 21 l98 6 -14 -33 c-8 -19 -27 -59 -42
-90 l-27 -55 -132 -28 c-262 -56 -262 -57 -73 -50 92 3 167 2 167 -3 0 -23
-65 -115 -105 -151 -49 -43 -108 -67 -187 -78 -47 -7 -48 -8 -77 -70 -34 -72
-137 -254 -189 -332 -19 -29 -74 -95 -123 -147 -66 -70 -91 -104 -99 -136 -15
-57 -1 -107 46 -159 46 -51 89 -65 154 -51 137 29 231 125 400 406 l80 132 65
7 c195 20 463 154 660 330 36 32 68 56 71 53 11 -11 -64 -103 -145 -179 l-78
-74 35 -69 c40 -81 114 -183 212 -294 63 -72 84 -101 62 -88 -16 11 -667 -84
-682 -99 -3 -3 132 -4 300 -1 319 5 493 18 1190 92 469 49 1397 166 1437 180
7 2 51 -1 98 -7 207 -28 408 60 422 185 14 124 -85 246 -200 247 -48 0 -104
25 -124 56 -19 29 -126 116 -220 179 -40 26 -73 50 -73 51 0 2 72 4 159 4
l159 0 78 -71 c43 -39 94 -79 113 -89 101 -50 239 -44 298 15 61 61 51 165
-27 264 -47 59 -180 165 -270 214 -89 49 -154 64 -311 71 -74 4 -154 9 -178
12 l-43 6 3 77 c3 65 9 85 32 120 33 50 76 78 135 87 36 5 52 2 101 -25 32
-17 72 -31 87 -31 42 0 125 52 173 107 40 47 123 202 136 256 l7 27 32 -22
c17 -11 46 -35 64 -52 17 -16 32 -25 32 -19 0 11 -74 81 -106 99 -29 18 -12
25 29 12 21 -6 56 -30 79 -52 l41 -40 -17 32 c-10 18 -38 46 -64 63 -25 16
-44 29 -41 29 22 0 109 -33 119 -45 7 -8 17 -15 23 -15 5 0 2 9 -9 21 -39 43
-66 49 -220 49 -142 0 -147 -1 -131 -18 22 -24 22 -75 0 -94 -60 -52 -135 -54
-201 -7 -33 24 -59 34 -98 37 -57 5 -115 -10 -136 -35 -12 -15 -11 -15 9 -5
58 31 159 7 208 -51 20 -23 31 -32 25 -19 l-11 23 40 -20 c48 -25 89 -26 138
-6 19 8 37 15 40 15 13 0 -56 -106 -89 -136 -48 -43 -73 -43 -129 1 -85 66
-194 84 -275 45 -75 -37 -173 -162 -174 -223 0 -28 -23 -15 -42 24 -28 54 -23
145 13 253 16 50 37 102 46 116 14 21 11 20 -26 -9 -85 -67 -150 -181 -175
-305 -13 -60 -13 -60 -29 -36 -18 28 -47 172 -47 232 0 41 43 182 63 206 9 11
4 13 -24 10 -29 -3 -37 -9 -56 -48 -32 -67 -65 -166 -73 -224 l-7 -51 -22 48
c-27 57 -44 159 -39 228 l3 49 -47 0 c-45 0 -49 -3 -74 -40 -15 -22 -25 -42
-23 -44 2 -3 25 6 50 18 l47 22 4 -91 c3 -83 8 -100 47 -181 23 -49 56 -129
72 -179 16 -49 47 -119 69 -155 22 -36 40 -72 40 -81 0 -8 5 -20 12 -27 8 -8
8 -12 1 -12 -14 0 -83 54 -111 88 l-23 27 10 -27 c15 -40 51 -109 73 -140 11
-16 16 -28 12 -28 -10 0 -213 109 -246 132 -36 25 -35 14 5 -43 46 -66 109
-119 217 -184 98 -60 444 -289 540 -358 30 -22 82 -64 115 -92 76 -65 89 -72
156 -80 82 -10 116 -23 144 -56 32 -39 35 -107 5 -134 -20 -18 -20 -17 -20 23
0 74 -37 118 -107 129 l-37 6 41 -39 c51 -49 60 -79 37 -130 l-17 -39 -8 46
c-4 26 -15 58 -24 72 -19 29 -90 61 -125 55 -19 -2 -14 -8 31 -38 63 -42 80
-80 51 -120 -22 -28 -73 -44 -118 -36 -32 7 -66 37 -239 217 -99 103 -217 192
-313 235 -40 19 -75 34 -78 34 -12 0 45 -64 86 -97 25 -20 36 -33 25 -31 -233
61 -386 110 -547 174 l-98 39 0 90 c-1 50 -7 106 -13 125 -7 19 -47 87 -88
150 -41 63 -90 141 -109 173 -19 32 -43 65 -52 74 -15 14 -16 11 -2 -44 26
-99 74 -245 99 -296 15 -32 19 -50 11 -52 -6 -2 -67 -6 -136 -8 -141 -4 -252
5 -372 29 -157 32 -309 6 -386 -67 -13 -11 -25 -19 -28 -17 -10 11 58 87 105
117 28 18 51 35 51 37 0 8 -101 -35 -147 -62 -27 -15 -109 -87 -183 -159 -158
-154 -296 -267 -410 -335 -145 -87 -328 -146 -418 -135 -46 6 -47 6 -68 -32
-76 -139 -203 -346 -238 -389 -64 -79 -163 -150 -182 -131 -3 2 5 21 17 41 11
20 18 36 15 36 -3 0 -25 -13 -48 -30 -45 -33 -75 -38 -84 -15 -12 31 9 68 92
158 93 101 153 187 263 379 69 121 75 128 110 134 61 10 137 44 179 80 57 49
129 166 207 339 134 298 214 433 329 561 62 69 212 175 356 252 152 81 246
103 548 125 l54 4 -69 -69 c-112 -114 -212 -178 -281 -178 -15 0 -15 -2 -2
-10 23 -15 127 -1 194 26 64 26 159 96 271 199 l70 64 -340 1 -340 0 -80 -35z
m2665 -2 c0 -12 -27 -73 -33 -73 -1 0 -2 22 -2 48 0 42 3 48 18 44 9 -2 17
-11 17 -19z m-282 -769 c112 -17 129 -25 256 -123 148 -113 196 -193 146 -246
-19 -20 -60 -40 -60 -29 0 2 9 18 20 36 22 36 25 69 10 98 -9 17 -99 74 -106
67 -2 -2 14 -21 36 -42 22 -22 40 -46 40 -53 0 -18 -24 -38 -68 -58 -29 -13
-36 -13 -66 1 -19 9 -71 55 -117 102 -46 48 -101 102 -122 121 l-38 35 11 -28
c6 -15 8 -30 5 -33 -8 -8 -121 49 -171 86 -23 17 -52 45 -64 62 l-23 33 109
-7 c60 -4 151 -14 202 -22z m-1708 -315 c65 -14 130 -21 204 -21 l108 0 -6
-41 c-4 -23 -9 -51 -12 -63 -5 -18 11 -25 173 -77 98 -31 240 -75 315 -97 168
-48 374 -123 448 -160 32 -17 86 -60 129 -103 l74 -75 -64 -6 c-35 -3 -210
-15 -389 -26 -386 -24 -463 -31 -855 -77 -447 -52 -412 -50 -420 -22 -31 101
-185 171 -280 127 -24 -11 -29 -8 -74 36 -42 41 -71 96 -71 133 0 6 30 20 68
33 210 70 362 200 455 390 41 85 42 86 72 78 17 -4 73 -17 125 -29z"/>
<path d="M6522 10200 c-47 -37 -82 -76 -82 -91 0 -4 41 20 91 53 50 32 100 63
112 68 18 7 12 9 -25 9 -39 1 -54 -5 -96 -39z"/>
<path d="M7100 10233 c8 -3 24 -10 35 -16 18 -9 19 -9 6 6 -7 10 -23 17 -35
16 -14 0 -16 -2 -6 -6z"/>
<path d="M9326 10158 c-30 -46 -64 -104 -77 -131 -19 -38 -30 -49 -59 -57 -19
-5 -159 -41 -310 -79 -151 -39 -288 -75 -305 -80 -26 -9 -25 -9 15 -5 25 2
122 11 215 19 94 9 203 20 243 25 40 6 79 10 86 10 8 0 -7 -39 -38 -98 l-50
-99 -115 -17 c-121 -18 -411 -71 -471 -85 l-35 -9 40 -1 c54 -1 416 17 487 25
l57 6 -50 -114 c-86 -193 -112 -227 -220 -282 l-64 -32 -66 -131 c-110 -216
-157 -289 -260 -397 -109 -114 -129 -147 -129 -208 0 -113 123 -192 247 -159
93 25 202 144 343 373 118 192 103 177 200 202 115 30 290 112 397 185 49 33
134 101 191 152 57 50 105 89 107 87 9 -9 -136 -167 -197 -216 -94 -74 -93
-73 -67 -124 12 -24 35 -63 52 -88 38 -56 203 -253 251 -299 l36 -34 182 12
c208 14 238 19 238 35 0 46 -35 122 -75 161 -65 66 -147 79 -227 39 -26 -14
-28 -13 -82 58 -31 39 -56 79 -56 88 0 11 18 22 56 34 65 20 184 81 241 123
120 88 169 145 233 273 18 36 34 66 35 68 1 1 40 -7 86 -19 72 -18 100 -21
194 -15 60 3 124 9 142 12 l31 6 -5 -41 c-5 -39 -4 -42 28 -55 37 -15 225 -64
469 -122 182 -43 364 -104 437 -145 28 -16 87 -61 129 -100 43 -39 100 -82
126 -95 103 -52 303 -52 406 0 69 35 132 106 132 149 0 111 -103 227 -201 227
-58 0 -98 17 -157 68 -87 74 -158 125 -257 182 -55 32 -78 50 -60 46 17 -4
101 -11 188 -16 l159 -9 78 -75 c43 -41 103 -88 132 -103 48 -25 63 -28 154
-28 92 0 104 2 141 27 49 32 68 80 59 144 -12 92 -51 139 -201 246 -176 126
-208 138 -449 168 -89 11 -169 23 -180 26 -16 5 -18 14 -14 69 6 74 39 145 86
186 38 34 96 39 155 14 81 -33 147 -15 221 61 l38 39 -53 3 c-30 2 -70 -2 -90
-8 -26 -9 -46 -9 -75 -1 -21 6 -114 11 -205 11 l-167 0 -51 -56 c-31 -34 -55
-71 -62 -97 -27 -100 -23 -97 -52 -37 -16 33 -29 82 -33 123 l-7 67 -38 0
c-37 0 -40 -2 -69 -60 -20 -40 -30 -74 -30 -105 0 -88 -30 -45 -56 78 -15 70
-22 87 -36 87 -10 0 -18 -7 -18 -17 -1 -17 -2 -17 -14 0 -10 13 -24 17 -48 15
l-33 -3 41 -41 c25 -25 45 -55 49 -75 20 -99 82 -237 139 -312 20 -26 36 -49
36 -51 0 -8 -136 86 -152 106 -10 11 -18 16 -18 11 0 -14 39 -63 102 -129 32
-32 54 -60 49 -62 -17 -6 -244 87 -267 109 -13 12 -26 20 -29 17 -3 -2 30 -40
74 -84 64 -64 99 -90 192 -139 131 -69 369 -226 547 -361 152 -116 150 -115
235 -124 80 -9 111 -28 140 -84 15 -29 18 -45 11 -64 -13 -38 -31 -37 -38 1
-14 73 -90 128 -176 126 -23 -1 -22 -2 10 -16 70 -30 116 -93 105 -144 -5 -24
-30 -49 -48 -49 -2 0 -2 14 1 30 10 66 -71 141 -150 139 -32 0 -32 -1 19 -24
55 -25 74 -49 75 -95 2 -47 -18 -62 -71 -54 -91 12 -142 45 -288 186 -117 112
-154 141 -233 183 -52 28 -99 51 -105 53 -12 4 49 -54 90 -86 29 -23 29 -23 5
-18 -14 4 -113 27 -220 52 -107 24 -256 61 -331 81 l-137 36 0 99 c-1 83 -5
107 -25 151 -24 50 -139 221 -191 282 l-26 30 7 -35 c3 -19 17 -71 30 -115 33
-110 62 -219 58 -223 -1 -1 -42 -9 -91 -18 -103 -18 -324 -15 -497 7 -127 16
-224 4 -296 -36 -24 -14 -46 -24 -48 -22 -2 3 35 41 82 85 l86 81 -48 -22
c-26 -13 -64 -31 -83 -41 -19 -10 -118 -103 -220 -205 -102 -103 -214 -208
-250 -233 -137 -96 -357 -196 -473 -213 -45 -7 -46 -8 -103 -104 -70 -118
-232 -347 -271 -382 -48 -44 -88 -68 -131 -78 -48 -10 -54 -1 -14 24 28 18 61
54 62 68 0 4 -13 -2 -29 -14 -28 -21 -131 -40 -131 -25 0 19 30 58 99 131 116
122 233 304 307 478 27 63 32 68 69 78 62 16 123 56 156 102 42 57 99 173 214
432 137 309 212 438 323 558 l45 47 -72 0 -71 0 -54 -82z m2734 -402 c205 -23
261 -43 396 -138 177 -124 224 -205 151 -255 -48 -33 -74 -31 -40 3 51 51 10
128 -90 168 l-41 16 42 -43 c47 -48 54 -85 22 -117 -11 -11 -33 -20 -50 -20
-33 0 -57 19 -203 160 -54 52 -103 97 -109 99 -5 2 -3 -11 6 -27 9 -17 16 -33
16 -36 0 -9 -134 43 -159 62 -37 27 -97 142 -74 142 4 0 64 -7 133 -14z"/>
<path d="M9671 10200 c-46 -36 -110 -124 -99 -136 5 -4 186 115 238 156 l25
20 -57 0 c-51 0 -61 -4 -107 -40z"/>
<path d="M10075 10220 c-49 -18 -49 -18 -22 -25 41 -11 133 2 175 25 l37 19
-70 -1 c-39 0 -92 -8 -120 -18z"/>
<path d="M10556 10218 c-3 -13 -7 -48 -10 -78 l-5 -55 34 70 c18 39 34 73 34
78 1 4 -10 7 -24 7 -18 0 -26 -6 -29 -22z"/>
<path d="M10801 10178 c-12 -34 -21 -73 -21 -87 0 -35 44 -127 64 -134 15 -6
16 -2 9 31 -10 47 -10 99 0 185 8 63 7 67 -11 67 -16 0 -25 -14 -41 -62z"/>
<path d="M14243 10216 c-73 -12 -135 -24 -138 -27 -3 -3 96 -4 221 -1 l226 5
-23 -44 c-51 -102 -92 -135 -200 -163 l-67 -18 -37 -91 c-81 -198 -169 -341
-286 -462 -97 -102 -112 -131 -107 -207 5 -62 23 -96 72 -132 38 -29 147 -29
191 -1 113 72 169 140 291 356 48 85 94 161 103 171 9 9 50 26 91 38 191 56
320 147 480 340 84 102 83 101 67 55 -28 -78 -95 -200 -141 -256 -25 -31 -46
-60 -46 -65 0 -52 247 -400 369 -519 l51 -49 0 173 0 173 -51 61 c-27 33 -56
72 -64 86 -13 26 -13 27 51 60 l64 33 0 254 0 254 -37 0 c-24 0 -45 -8 -61
-22 l-24 -23 6 23 c7 21 5 22 -47 22 l-55 0 -53 -62 c-114 -135 -234 -261
-273 -287 -103 -71 -268 -141 -331 -141 -34 0 -35 -2 -99 -127 -148 -291 -281
-453 -371 -453 -14 0 -9 11 21 48 20 26 42 53 48 61 6 8 -14 -2 -44 -22 -63
-42 -120 -58 -120 -34 0 8 33 52 73 98 161 188 291 392 336 530 10 33 17 38
59 48 55 14 139 68 170 111 27 36 112 202 112 219 0 20 -277 12 -427 -13z"/>
<path d="M5607 10190 c-33 -20 -82 -59 -109 -85 -48 -48 -105 -131 -96 -141 8
-8 81 51 193 158 117 112 121 133 12 68z"/>
<path d="M6785 10206 c-87 -27 -74 -31 95 -31 148 0 164 1 136 13 -26 11 -149
32 -181 31 -5 0 -28 -6 -50 -13z"/>
<path d="M1764 10190 c28 -11 52 -17 54 -15 7 7 -64 35 -85 35 -10 -1 4 -10
31 -20z"/>
<path d="M1824 10192 c8 -13 106 -72 106 -64 0 4 -21 22 -48 40 -46 31 -68 40
-58 24z"/>
<path d="M1545 10155 l-40 -13 61 -1 c53 -1 214 -28 279 -47 14 -4 17 -3 10 4
-18 19 -192 72 -231 71 -22 -1 -57 -7 -79 -14z"/>
<path d="M2214 10047 c46 -30 65 -50 86 -89 18 -35 21 -37 15 -14 -10 47 -77
117 -110 115 -5 0 -2 -6 9 -12z"/>
<path d="M4825 10031 c-115 -41 -261 -133 -304 -192 l-21 -29 32 7 c58 10 97
31 181 95 103 80 160 118 174 118 7 0 15 5 18 10 9 15 -23 11 -80 -9z"/>
<path d="M9905 10032 c-87 -53 -198 -225 -229 -356 -6 -26 -1 -22 46 29 75 82
129 157 182 254 25 46 46 85 46 87 0 8 -16 3 -45 -14z"/>
<path d="M10135 9945 c-93 -95 -96 -100 -70 -103 45 -6 75 7 111 46 34 37 70
121 61 145 -2 7 -46 -31 -102 -88z"/>
<path d="M17 10019 c-13 -8 -17 -23 -17 -67 l0 -57 19 25 c23 29 29 56 22 87
-5 17 -10 20 -24 12z"/>
<path d="M197 9942 c-54 -48 -105 -97 -113 -110 -15 -22 -15 -23 13 -16 55 12
68 17 105 42 45 29 78 80 88 133 4 22 7 39 6 38 0 0 -45 -39 -99 -87z"/>
<path d="M5731 9983 c-41 -62 -65 -143 -59 -203 5 -50 55 -180 70 -180 10 0
10 -3 -7 45 -8 23 -14 78 -15 132 0 75 5 108 26 168 14 42 24 78 21 81 -2 3
-19 -17 -36 -43z"/>
<path d="M10360 9898 c-112 -147 -112 -147 -54 -114 64 37 99 71 120 115 19
40 35 111 25 111 -4 0 -45 -50 -91 -112z"/>
<path d="M452 9909 c-9 -17 -34 -58 -55 -90 -24 -39 -31 -56 -20 -50 41 21 74
70 91 134 13 45 7 47 -16 6z"/>
<path d="M10977 9919 c-8 -30 1 -86 18 -119 15 -29 65 -78 65 -63 0 15 -46
147 -62 178 l-15 28 -6 -24z"/>
<path d="M9397 9840 c-40 -45 -117 -174 -117 -195 0 -11 43 18 85 56 46 42 89
131 83 170 -3 21 -8 18 -51 -31z"/>
<path d="M5070 9758 c-30 -23 -83 -71 -117 -107 l-62 -66 31 -3 c56 -6 113 24
147 76 34 53 64 120 59 133 -2 4 -28 -10 -58 -33z"/>
<path d="M5318 9762 c-14 -20 -36 -58 -48 -82 -27 -53 -103 -155 -128 -170
-14 -10 -13 -10 8 -6 14 3 33 6 43 6 29 0 103 77 126 129 19 45 40 161 29 161
-3 0 -17 -17 -30 -38z"/>
<path d="M4775 9736 c-91 -59 -153 -145 -181 -251 -8 -27 -14 -53 -14 -56 0
-18 132 125 178 191 47 69 80 136 71 144 -2 2 -26 -11 -54 -28z"/>
<path d="M796 9610 c18 -119 54 -198 120 -260 34 -33 36 -33 29 -10 -17 54
-86 205 -104 224 -10 12 -26 35 -35 51 l-15 30 5 -35z"/>
<path d="M9427 9580 c-49 -53 -152 -218 -142 -228 10 -10 108 56 126 85 18 28
81 203 74 203 -2 0 -28 -27 -58 -60z"/>
<path d="M4346 9589 c-40 -35 -66 -73 -95 -142 l-21 -48 45 38 c27 23 55 60
70 93 14 30 30 63 35 73 14 25 6 21 -34 -14z"/>
<path d="M5891 9560 c-1 -56 36 -139 72 -163 15 -9 28 -17 30 -17 6 0 -17 51
-65 150 l-37 75 0 -45z"/>
<path d="M11095 9464 c22 -16 52 -35 66 -41 38 -17 135 -27 154 -16 13 8 1 15
-57 36 -40 14 -93 28 -118 31 -25 3 -55 8 -65 12 -11 4 -2 -6 20 -22z"/>
<path d="M4375 9351 c-63 -42 -182 -218 -161 -238 11 -12 92 57 127 109 37 53
83 147 77 154 -2 1 -21 -10 -43 -25z"/>
<path d="M675 9238 c22 -71 93 -128 160 -128 l29 0 -44 38 c-24 20 -68 54 -98
75 -48 34 -53 35 -47 15z"/>
<path d="M5989 9141 c41 -32 211 -56 225 -32 3 5 -15 14 -42 20 -98 21 -154
31 -180 31 l-27 0 24 -19z"/>
<path d="M14900 8049 c0 -10 13 -42 29 -73 17 -31 27 -56 22 -56 -9 0 -76 70
-89 95 -20 35 -14 -8 8 -67 28 -74 80 -140 138 -178 l50 -32 -5 -57 c-5 -51
10 -212 23 -244 3 -9 -16 -17 -63 -26 -135 -26 -254 -85 -492 -244 -173 -115
-188 -120 -376 -122 -175 -3 -310 -22 -440 -62 -193 -60 -310 -129 -449 -263
l-92 -89 -100 -16 c-92 -15 -520 -90 -662 -116 -35 -6 -62 -13 -60 -15 2 -1
82 2 178 7 159 8 543 26 546 25 1 -1 -19 -36 -43 -78 -38 -66 -50 -78 -77 -83
-17 -3 -150 -21 -296 -40 -286 -38 -582 -84 -590 -92 -3 -3 185 -1 418 3 232
4 422 4 422 0 0 -3 -20 -49 -44 -100 l-44 -94 -63 -6 c-35 -3 -134 -10 -219
-16 -85 -6 -159 -15 -163 -19 -4 -4 61 -11 145 -15 84 -3 179 -9 210 -12 l57
-7 -17 -26 c-65 -105 -119 -146 -235 -176 l-79 -21 -50 -95 c-112 -209 -207
-336 -346 -461 -64 -57 -86 -105 -80 -170 14 -139 179 -192 337 -108 98 53
253 229 365 415 28 46 42 60 64 62 309 37 496 122 730 331 40 36 75 63 77 60
14 -14 -168 -215 -240 -266 l-30 -21 44 -88 c54 -110 112 -199 185 -283 31
-36 56 -68 56 -72 0 -5 -17 -8 -39 -8 -42 0 -452 -50 -624 -76 -187 -29 -121
-37 235 -31 272 4 802 32 983 52 28 3 185 14 350 25 387 26 411 28 658 51 114
10 214 19 222 19 11 0 15 12 15 45 l0 45 -45 0 c-24 0 -124 -5 -222 -10 -98
-6 -302 -17 -453 -25 -151 -9 -344 -20 -429 -25 -203 -13 -201 -13 -201 7 0
57 -112 123 -209 123 -45 0 -52 4 -90 46 -41 44 -84 121 -75 135 2 4 16 10 31
14 53 13 228 106 294 155 86 64 188 173 227 242 l32 55 72 -26 c67 -24 87 -26
230 -26 l157 1 3 -39 c3 -39 3 -39 88 -73 206 -84 334 -136 458 -187 l132 -56
0 52 0 52 -77 29 c-43 16 -166 64 -275 108 l-196 80 -4 91 c-3 88 -6 97 -59
207 -45 92 -141 241 -189 293 -14 16 28 -145 68 -261 21 -62 35 -115 30 -118
-4 -3 -48 -8 -96 -11 -101 -7 -256 9 -392 40 -172 39 -325 27 -418 -31 -12 -8
-25 -13 -27 -10 -10 10 32 53 88 89 66 43 59 49 -24 20 -121 -41 -170 -76
-344 -240 -248 -234 -462 -342 -748 -376 -55 -6 -58 -8 -79 -48 -52 -102 -219
-329 -284 -387 -33 -28 -149 -90 -170 -90 -4 0 12 19 34 42 23 23 42 46 42 50
0 5 -26 -5 -57 -22 -32 -16 -65 -30 -74 -30 -16 0 -39 19 -39 32 0 5 46 57
103 116 105 109 275 349 326 458 22 48 26 52 67 58 67 9 142 52 209 120 55 55
73 85 178 296 127 259 201 378 302 487 78 86 202 181 294 227 68 35 229 90
291 100 19 3 49 8 65 11 65 12 204 17 251 10 l49 -7 -75 -70 c-52 -48 -103
-83 -164 -114 l-90 -44 55 0 c106 0 234 53 340 142 182 152 307 242 534 388
76 48 214 89 302 90 l41 0 22 -64 c11 -35 29 -71 39 -80 17 -16 17 -18 -16
-54 -47 -50 -120 -152 -132 -185 -12 -31 -13 -31 30 -13 l34 14 0 -101 c1
-114 16 -173 66 -253 17 -26 42 -81 56 -122 29 -88 74 -189 97 -217 14 -18 15
-8 16 128 0 90 -4 156 -11 169 -21 38 -23 170 -5 226 10 30 16 72 14 104 l-3
53 -40 -80 c-21 -44 -46 -109 -55 -144 l-16 -65 -22 69 c-35 106 -39 203 -12
303 12 45 33 98 45 117 16 23 20 35 11 38 -9 4 -46 98 -46 118 0 2 31 3 70 1
64 -3 70 -2 70 16 0 13 -13 25 -41 37 -42 19 -79 57 -105 107 l-15 29 42 -22
c23 -11 59 -27 81 -35 l38 -13 0 63 0 63 -57 38 c-32 21 -68 47 -80 58 -37 33
-27 1 19 -61 24 -31 47 -61 53 -65 13 -11 -65 0 -100 13 -32 12 -55 64 -55
123 0 43 15 104 30 120 6 7 94 -23 178 -60 9 -4 12 10 12 54 l0 60 -107 33
c-60 18 -130 44 -157 57 -55 28 -149 111 -177 158 -12 19 -19 24 -19 14z"/>
<path d="M8427 7247 c-11 -28 -8 -105 5 -149 6 -22 32 -63 57 -90 41 -46 43
-52 31 -71 -29 -45 -52 -100 -58 -140 l-7 -40 -74 2 c-41 1 -112 9 -158 16
-72 12 -90 19 -123 49 -48 43 -53 46 -211 111 -179 74 -289 155 -337 250 -20
37 -21 38 -22 13 0 -15 18 -62 40 -104 36 -70 37 -75 14 -53 -39 37 -64 74
-85 132 l-20 52 4 -61 c8 -104 66 -197 165 -266 38 -26 42 -33 37 -58 -11 -50
-7 -173 8 -227 16 -60 22 -55 -82 -73 -130 -23 -296 -96 -451 -199 -143 -95
-148 -96 -480 -96 -317 -1 -413 -12 -570 -67 -160 -57 -235 -103 -355 -220
l-81 -77 -184 -26 c-102 -14 -273 -36 -380 -50 -281 -37 -311 -44 -155 -39 72
2 242 6 378 10 l249 6 -58 -84 c-32 -46 -61 -87 -65 -91 -8 -10 -104 -22 -289
-37 -176 -14 -658 -69 -700 -79 -28 -7 785 -19 888 -13 13 0 22 -3 20 -7 -2
-4 -23 -50 -47 -103 l-44 -95 -216 -7 c-119 -4 -263 -13 -321 -20 l-105 -12
90 -7 c392 -30 510 -39 513 -42 8 -7 -72 -150 -104 -185 -45 -49 -137 -95
-229 -113 l-70 -14 -61 -140 c-109 -251 -148 -316 -255 -428 -115 -120 -143
-168 -137 -237 15 -147 168 -213 318 -136 117 61 259 234 364 446 40 79 50 92
71 92 36 0 188 35 286 66 104 33 232 97 325 162 65 46 233 216 290 293 34 47
30 26 -10 -45 -44 -79 -141 -192 -244 -285 -74 -67 -80 -75 -71 -98 21 -56
102 -209 141 -266 57 -84 156 -214 168 -222 26 -16 -1 -22 -147 -34 -365 -29
-797 -82 -816 -101 -9 -8 77 -19 203 -24 100 -5 615 10 1035 29 796 36 911 43
1665 105 531 44 567 45 646 21 170 -51 375 -4 477 108 66 73 71 158 13 234
-37 49 -123 97 -175 97 -70 1 -123 20 -175 64 -59 49 -221 170 -284 211 -30
20 -39 31 -30 36 7 4 95 4 196 1 l182 -5 46 -56 c105 -126 203 -185 308 -185
208 1 292 144 183 309 -59 88 -271 255 -375 294 -55 21 -260 61 -412 81 -152
19 -143 15 -137 71 7 55 28 102 66 142 60 65 120 73 211 27 108 -54 188 -35
294 72 58 60 106 135 151 240 l21 47 34 -20 c19 -12 50 -35 68 -52 17 -17 32
-26 32 -20 0 15 -76 82 -106 93 -26 10 -29 17 -15 39 7 11 16 10 52 -6 24 -11
50 -27 58 -36 7 -10 18 -17 24 -17 23 0 -38 50 -85 70 -27 12 -48 23 -46 26
10 9 115 -29 147 -53 29 -23 32 -23 22 -5 -14 26 -64 56 -118 73 -35 10 -43
17 -43 36 0 12 4 23 10 23 16 0 93 -32 125 -53 l30 -19 -27 26 c-15 13 -55 35
-88 47 -80 29 -94 54 -108 189 -12 113 -44 255 -69 304 -24 48 -63 85 -130
122 -58 33 -63 38 -82 96 -31 92 -69 143 -196 262 -118 111 -175 187 -175 238
0 15 -4 30 -10 33 -17 11 -11 -72 10 -127 11 -28 18 -54 15 -56 -12 -12 -59
89 -64 138 -4 38 -9 49 -14 37z m-569 -426 c37 -21 96 -53 132 -70 36 -18 90
-52 120 -75 71 -55 106 -66 199 -65 66 1 71 2 41 10 -79 21 -116 33 -125 42
-6 6 1 7 20 3 17 -3 71 -8 120 -11 99 -7 254 -39 298 -62 l28 -14 -17 28 c-10
15 -25 37 -33 47 -15 18 -15 19 14 12 81 -19 250 -120 304 -181 l31 -36 -21
-29 c-19 -25 -21 -38 -17 -97 6 -83 19 -108 97 -197 l62 -70 -77 -18 c-43 -10
-87 -16 -98 -12 -15 4 -12 -2 12 -21 36 -30 72 -92 72 -126 0 -47 -94 -109
-168 -109 -31 0 -91 32 -121 64 -48 52 -125 52 -186 1 l-30 -25 30 15 c17 8
48 15 71 15 33 0 46 -6 74 -35 18 -19 37 -32 41 -29 4 2 10 0 14 -6 3 -6 24
-19 45 -30 69 -35 165 -23 223 28 33 29 16 -3 -41 -78 -40 -53 -71 -82 -105
-100 l-48 -25 -47 28 c-165 97 -245 115 -346 77 -98 -37 -175 -133 -194 -241
-8 -43 -8 -44 -21 -19 -23 41 -41 122 -41 184 0 47 8 74 40 145 23 47 55 103
72 125 39 48 12 36 -59 -28 -102 -92 -198 -237 -217 -328 -14 -62 -36 -20 -57
106 -11 64 -10 88 3 163 28 159 101 273 238 372 39 28 70 54 70 57 0 17 -214
-124 -257 -169 -46 -47 -118 -169 -144 -243 -12 -35 -26 -64 -29 -64 -12 0
-20 88 -20 224 0 118 3 136 25 184 13 29 37 69 52 90 27 36 27 37 2 15 -28
-25 -48 -31 -30 -9 7 9 8 22 3 37 -5 13 -12 40 -16 59 l-6 36 102 -4 c105 -4
174 8 133 23 -107 39 -165 77 -190 125 -12 23 -3 20 106 -34 66 -32 122 -56
126 -52 4 3 -15 28 -41 55 l-47 48 72 -24 c102 -33 123 -31 68 8 -24 18 -73
55 -109 84 -36 29 -94 67 -130 85 -36 18 -73 39 -82 48 -10 8 -18 12 -18 8 0
-12 32 -70 57 -103 27 -37 26 -38 -41 -15 -41 14 -52 23 -62 52 -18 52 -16
190 3 190 2 0 35 -17 71 -39z m-84 -443 c12 -48 28 -81 46 -99 l26 -27 -32
-16 c-21 -10 -60 -51 -104 -111 -91 -123 -92 -127 -43 -113 21 5 46 15 56 20
17 9 18 6 11 -39 -12 -73 -7 -182 9 -235 8 -26 33 -74 55 -107 31 -44 47 -84
67 -162 21 -84 61 -187 103 -263 11 -19 -62 31 -89 62 -37 42 -37 22 1 -64 17
-37 29 -68 27 -70 -8 -8 -159 101 -197 142 -23 25 -44 44 -46 41 -8 -8 57
-124 101 -180 55 -70 115 -117 305 -239 292 -189 527 -347 590 -398 81 -66
153 -100 227 -107 32 -3 74 -14 94 -24 63 -31 82 -122 38 -175 -20 -24 -24
-16 -25 46 0 44 -5 65 -19 80 -22 24 -77 50 -107 50 -15 0 -11 -8 21 -38 64
-61 69 -150 10 -171 -18 -6 -34 -11 -35 -11 -2 0 -4 22 -4 49 0 77 -46 122
-140 135 l-45 6 41 -19 c68 -31 101 -129 60 -180 -18 -23 -124 -9 -187 25 -59
32 -90 60 -261 246 -65 69 -146 147 -180 173 -60 45 -196 120 -204 113 -2 -2
38 -46 88 -98 50 -51 85 -91 77 -88 -31 12 -310 99 -409 127 -128 37 -228 71
-297 101 l-53 22 0 142 c0 77 -5 159 -11 181 -16 59 -89 207 -158 320 l-61 99
0 -54 c0 -66 24 -216 45 -285 8 -27 15 -53 15 -58 0 -18 -313 46 -440 91 -103
36 -108 37 -245 36 -150 -1 -193 -11 -268 -60 -22 -14 -41 -24 -43 -22 -2 2
33 41 78 87 l82 83 -44 -18 c-139 -56 -223 -120 -354 -272 -221 -257 -352
-346 -632 -427 -48 -14 -123 -29 -166 -34 -44 -5 -81 -11 -83 -12 -2 -2 -34
-62 -71 -134 -141 -273 -266 -413 -393 -440 l-34 -7 48 62 47 61 -54 -30 c-86
-49 -134 -37 -102 24 8 15 48 63 89 107 42 44 96 109 121 144 45 62 150 268
193 375 l22 56 57 10 c92 18 172 53 220 97 45 42 104 146 149 264 37 99 174
371 228 453 99 150 318 336 486 413 150 68 391 101 624 85 61 -4 121 -8 134
-8 55 -2 -224 -168 -336 -202 -24 -6 -43 -15 -43 -18 0 -13 139 -2 201 15 139
38 250 103 501 289 78 58 182 126 232 151 87 43 278 100 341 103 30 1 31 -1
49 -71z m1287 -75 c5 -15 8 -38 6 -52 -3 -24 -5 -22 -24 19 -11 25 -19 48 -16
53 9 15 24 6 34 -20z m49 -318 c13 -16 3 -20 -24 -9 -9 3 -13 10 -10 15 8 13
20 11 34 -6z m26 -70 c6 -15 -34 -95 -47 -95 -15 0 -4 95 11 102 23 10 30 9
36 -7z m-488 -771 c254 -39 314 -61 456 -163 191 -139 245 -248 149 -299 -12
-7 -29 -12 -38 -12 -14 0 -14 4 4 26 28 35 28 97 1 124 -23 23 -125 90 -136
90 -5 0 6 -15 22 -32 52 -55 74 -100 62 -123 -26 -49 -77 -59 -121 -25 -15 12
-75 76 -134 143 -59 67 -112 125 -117 129 -18 12 -19 0 -2 -17 9 -9 16 -18 16
-20 0 -7 -196 48 -229 65 -80 41 -141 102 -141 141 0 14 5 15 50 3 28 -7 98
-20 158 -30z m-1823 -143 c127 -51 281 -91 352 -91 47 0 54 -2 49 -17 -10 -35
-36 -154 -36 -167 0 -16 222 -110 375 -160 61 -19 162 -47 225 -62 132 -31
321 -98 410 -145 39 -20 89 -62 142 -118 l83 -86 -415 -7 c-475 -7 -896 -23
-1219 -44 -123 -8 -225 -13 -226 -12 -1 2 -7 22 -13 44 -26 89 -158 167 -248
145 -22 -5 -46 -12 -54 -15 -26 -11 -155 147 -166 202 -6 29 -5 29 88 61 130
46 239 112 328 201 77 76 152 186 186 273 11 26 24 45 29 43 6 -2 55 -22 110
-45z"/>
<path d="M8840 6503 c12 -21 37 -56 55 -78 l34 -40 -8 35 c-11 48 -26 75 -57
99 -40 31 -48 25 -24 -16z"/>
<path d="M8590 6478 c-52 -36 -48 -45 15 -40 65 5 106 -9 140 -50 27 -32 31
-23 15 31 -23 80 -99 106 -170 59z"/>
<path d="M8563 6330 c-41 -9 -128 -48 -121 -55 2 -2 24 1 48 6 25 6 58 8 74 5
45 -9 216 -115 259 -159 41 -44 45 -38 26 38 -29 114 -161 190 -286 165z"/>
<path d="M8344 6020 c-77 -16 -185 -79 -256 -150 -76 -76 -93 -113 -24 -53 50
44 234 146 308 170 31 10 71 14 112 11 66 -4 82 7 23 16 -76 12 -125 13 -163
6z"/>
<path d="M8730 6009 c30 -5 88 -25 128 -44 88 -41 96 -31 11 15 -48 25 -76 33
-128 36 l-66 3 55 -10z"/>
<path d="M8605 5963 c11 -2 57 -13 102 -24 81 -19 132 -25 120 -13 -11 12
-162 43 -202 42 -22 0 -31 -2 -20 -5z"/>
<path d="M8505 5920 c-39 -6 -135 -44 -135 -53 0 -3 21 1 47 9 55 17 221 18
293 3 73 -16 72 -5 -2 19 -71 23 -144 31 -203 22z"/>
<path d="M7280 6111 c-115 -46 -240 -185 -266 -295 -6 -26 -1 -23 47 30 95
104 264 271 279 276 8 3 13 8 10 11 -3 3 -34 -7 -70 -22z"/>
<path d="M6352 6005 c-116 -22 -230 -54 -280 -79 -50 -26 -129 -100 -115 -109
17 -10 114 24 204 72 52 27 130 64 174 81 44 17 84 36 90 41 5 5 7 9 5 8 -3
-1 -38 -7 -78 -14z"/>
<path d="M7353 5887 c-64 -85 -87 -145 -91 -234 -3 -64 0 -93 14 -128 11 -25
21 -45 24 -45 3 0 7 44 8 97 4 96 42 255 78 325 21 41 4 34 -33 -15z"/>
<path d="M6255 5747 c-35 -18 -86 -58 -122 -96 -64 -66 -133 -181 -133 -221 0
-19 7 -16 63 30 66 55 94 88 163 190 24 36 55 80 70 98 15 17 25 32 23 31 -2
0 -31 -15 -64 -32z"/>
<path d="M6634 5749 c-16 -18 -60 -56 -99 -85 -38 -29 -86 -67 -105 -83 l-35
-30 50 -1 c96 0 177 65 212 170 11 33 17 60 13 60 -3 0 -19 -14 -36 -31z"/>
<path d="M6841 5626 c-17 -25 -67 -82 -111 -128 -44 -45 -80 -83 -80 -85 0 -2
15 -3 33 -3 48 0 137 56 164 105 21 38 41 140 30 151 -3 3 -19 -15 -36 -40z"/>
<path d="M5767 5601 c-51 -55 -85 -113 -102 -170 l-7 -23 32 18 c37 22 103
103 123 154 41 99 31 103 -46 21z"/>
<path d="M5795 5348 c-45 -52 -176 -249 -169 -257 6 -7 92 49 123 80 18 17 39
45 48 62 17 35 55 159 49 164 -2 2 -25 -20 -51 -49z"/>
<path d="M7451 5303 c-1 -45 4 -94 10 -110 12 -32 59 -96 65 -90 5 5 -48 217
-65 257 -8 20 -10 9 -10 -57z"/>
<path d="M7525 4885 c80 -50 149 -61 230 -38 25 7 -42 26 -165 48 -111 19
-112 19 -65 -10z"/>
<path d="M14692 6955 c-142 -66 -265 -261 -261 -414 0 -25 1 -24 16 9 97 214
83 193 220 333 52 53 91 97 86 97 -4 0 -32 -11 -61 -25z"/>
<path d="M2576 6774 c-4 -10 -9 -49 -12 -88 -6 -68 -4 -74 34 -150 l40 -80
-18 -46 c-10 -25 -21 -70 -25 -100 l-7 -55 -132 0 -132 0 -54 48 c-68 62 -112
87 -244 141 -151 63 -227 125 -275 226 -10 22 -11 20 -6 -22 4 -45 32 -109 72
-168 13 -19 7 -16 -20 10 -21 19 -51 61 -67 94 -36 70 -39 56 -8 -34 18 -53
34 -77 90 -133 l68 -67 -6 -83 c-5 -63 -3 -97 10 -141 19 -66 17 -70 -43 -81
-84 -16 -223 -95 -413 -236 -107 -80 -150 -92 -333 -95 -344 -6 -526 -58 -725
-208 -47 -35 -119 -99 -160 -141 -74 -77 -75 -77 -142 -87 l-68 -10 0 -49 c0
-46 2 -49 25 -49 14 0 25 -2 25 -4 0 -2 -11 -24 -25 -47 -22 -40 -25 -55 -25
-154 l1 -110 37 90 c100 240 235 392 472 530 97 56 218 94 340 106 112 11 300
9 300 -3 0 -4 -42 -43 -94 -85 -67 -56 -112 -85 -160 -103 -36 -13 -66 -28
-66 -32 0 -4 17 -8 38 -8 129 0 320 101 477 251 97 93 263 210 360 255 70 32
164 54 236 54 36 0 37 -1 43 -48 3 -26 17 -64 30 -83 l25 -36 -29 -28 c-39
-37 -135 -184 -126 -192 3 -4 27 3 51 15 l46 22 -8 -67 c-19 -160 -1 -235 79
-330 23 -27 40 -62 48 -95 19 -79 59 -187 86 -230 14 -21 22 -38 20 -38 -17 0
-97 58 -107 77 -7 13 -14 21 -16 19 -4 -4 40 -117 57 -148 15 -27 -2 -22 -57
16 -26 18 -60 37 -73 41 -14 4 -42 16 -63 27 -22 11 -41 17 -44 15 -10 -11 42
-92 88 -136 28 -26 89 -70 137 -96 171 -95 353 -222 597 -415 176 -140 184
-145 258 -167 64 -19 103 -45 122 -83 19 -36 19 -64 1 -79 -12 -10 -13 -8 -9
8 14 52 -27 111 -77 111 l-30 0 20 -32 c24 -39 26 -87 5 -114 -14 -18 -14 -17
-15 14 0 18 -5 43 -11 55 -26 48 -96 88 -151 86 l-33 -1 41 -14 c57 -20 96
-63 97 -108 1 -53 -21 -70 -88 -69 -91 2 -161 56 -370 287 -63 70 -115 116
-178 158 -78 51 -125 74 -103 51 3 -5 41 -43 84 -87 42 -43 68 -75 57 -71 -47
19 -193 68 -375 125 -107 35 -225 78 -262 97 l-68 35 0 58 c0 111 -74 364
-137 466 -19 33 -46 79 -59 104 -17 32 -24 39 -24 24 0 -33 28 -191 51 -278
11 -43 18 -81 15 -83 -3 -3 -31 -12 -63 -19 -88 -21 -162 -17 -250 11 -94 31
-257 65 -311 65 -54 0 -115 -23 -173 -65 -27 -19 -51 -35 -53 -35 -12 0 68
117 96 142 l33 29 -60 -32 c-93 -50 -115 -70 -248 -222 -170 -195 -256 -273
-365 -336 l-92 -53 0 -60 0 -60 28 7 c54 13 188 83 251 130 34 27 101 86 148
132 84 82 113 100 78 47 -27 -42 -162 -180 -216 -221 -27 -20 -49 -43 -49 -50
0 -33 110 -197 223 -331 38 -45 68 -84 66 -86 -2 -2 -74 -11 -159 -21 -182
-19 -349 -43 -361 -51 -5 -3 -9 -14 -9 -25 0 -17 8 -19 98 -19 53 0 268 11
477 25 209 13 461 29 560 35 269 15 443 29 720 55 304 29 457 41 681 55 147 9
176 8 215 -5 145 -51 323 -14 414 86 19 21 37 54 40 73 16 81 -76 212 -165
236 -101 27 -136 45 -214 113 -44 38 -113 95 -153 126 -40 30 -70 57 -68 60 2
2 64 -2 137 -10 l133 -13 73 -72 c42 -42 97 -84 130 -101 50 -25 68 -28 148
-28 84 0 93 2 127 28 99 75 59 206 -112 369 -88 85 -192 151 -280 179 -33 10
-116 25 -183 34 -68 9 -140 21 -162 26 l-39 10 6 58 c6 75 46 153 94 186 21
14 45 25 53 25 9 0 46 -18 83 -40 84 -51 132 -53 200 -10 60 38 96 89 169 238
l59 123 41 -23 c22 -13 52 -38 66 -56 14 -18 27 -30 29 -28 11 10 -41 67 -83
92 -45 26 -56 44 -29 44 27 0 71 -27 104 -65 17 -20 31 -30 31 -23 -1 31 -81
98 -116 98 -13 0 -24 4 -24 10 0 23 105 -14 147 -53 13 -11 26 -17 30 -13 13
13 -53 61 -114 82 -45 16 -59 26 -64 47 -7 25 -5 26 24 20 18 -3 58 -18 89
-32 31 -15 52 -21 46 -13 -18 21 -82 51 -127 58 -32 5 -43 12 -55 39 -9 18
-16 44 -16 57 0 65 -31 212 -60 287 -37 94 -94 162 -169 200 -27 14 -41 28
-41 41 0 11 -9 44 -21 74 -15 42 -45 82 -120 163 -123 133 -165 195 -181 265
l-11 53 -9 -35 c-4 -19 -6 -51 -3 -70 5 -29 4 -32 -6 -16 -6 10 -12 49 -13 87
0 38 -2 69 -2 69 -1 0 -5 -7 -8 -16z m-502 -462 c47 -26 120 -76 163 -112 95
-80 153 -109 213 -109 l45 -1 -49 28 -49 27 116 3 c107 2 125 0 205 -27 48
-16 88 -28 89 -27 1 1 -17 24 -40 51 -29 33 -36 46 -22 41 11 -4 49 -19 84
-32 80 -31 140 -72 184 -127 49 -61 50 -64 26 -88 -19 -19 -21 -28 -14 -83 9
-83 33 -132 94 -191 28 -27 51 -53 51 -58 0 -4 -4 -6 -8 -3 -4 2 -34 -6 -65
-19 -32 -13 -68 -21 -80 -18 -20 5 -20 4 5 -16 36 -29 71 -104 63 -133 -28
-92 -157 -112 -242 -37 -28 24 -43 29 -84 29 -30 0 -65 -8 -89 -20 -49 -25
-52 -34 -5 -14 19 7 51 14 71 14 30 0 43 -8 78 -44 36 -39 49 -46 104 -56 64
-11 116 -7 140 12 8 7 12 7 12 -1 0 -42 -99 -161 -134 -161 -11 0 -41 14 -66
30 -68 46 -142 70 -213 70 -89 0 -130 -15 -181 -64 -55 -54 -85 -112 -93 -177
-3 -27 -9 -49 -14 -49 -12 0 -28 59 -35 135 -10 111 23 214 104 324 20 27 21
31 6 23 -90 -49 -210 -216 -234 -327 l-6 -30 -22 35 c-62 100 11 410 129 543
22 26 37 47 32 47 -18 0 -134 -114 -162 -160 -41 -66 -111 -231 -111 -261 0
-14 -4 -19 -9 -14 -16 16 -31 134 -31 243 0 111 9 146 57 209 22 31 23 34 5
19 -23 -20 -31 -9 -10 12 9 9 8 12 -5 12 -18 0 -31 36 -25 67 2 13 15 19 53
24 28 3 64 11 80 18 l30 13 -25 11 c-45 20 -124 88 -148 128 -13 21 -19 39
-13 39 5 0 13 -4 16 -10 11 -17 167 -90 193 -90 l25 0 -24 26 -24 26 38 -22
c21 -12 41 -19 45 -15 4 4 1 10 -5 12 -7 3 -13 9 -13 14 0 5 13 3 30 -6 88
-46 26 14 -105 100 -61 40 -119 83 -129 94 -22 24 -45 29 -25 5 7 -9 14 -23
15 -30 1 -8 14 -30 28 -49 14 -18 26 -36 26 -40 0 -11 -95 43 -117 67 -11 12
-26 41 -32 63 -18 65 -13 155 9 155 4 0 46 -21 94 -48z m1067 -507 c4 -22 5
-42 4 -43 -5 -5 -32 40 -40 66 -6 20 -4 23 11 20 13 -2 21 -16 25 -43z m24
-285 c-3 -5 -15 -10 -25 -10 -10 0 -22 5 -25 10 -4 6 7 10 25 10 18 0 29 -4
25 -10z m35 -49 c0 -17 -29 -78 -43 -89 -11 -10 -13 -2 -13 43 1 53 2 55 29
55 15 0 27 -4 27 -9z m-420 -757 c85 -14 174 -34 197 -44 135 -59 333 -243
333 -310 0 -21 -49 -60 -76 -60 l-26 0 22 18 c46 37 21 116 -48 151 -21 11
-44 27 -51 35 -8 9 -18 16 -23 16 -5 0 6 -19 25 -42 64 -79 68 -105 21 -127
-62 -28 -87 -11 -201 128 -47 58 -84 96 -81 84 4 -13 5 -23 3 -23 -8 0 -163
85 -197 107 -44 30 -101 108 -71 99 10 -3 88 -17 173 -32z m-1540 -211 c98
-30 125 -34 185 -30 39 3 78 8 87 12 15 6 17 3 13 -21 -2 -16 -7 -58 -10 -95
l-5 -65 142 -51 c79 -29 238 -81 353 -117 387 -120 430 -140 557 -257 l73 -68
-45 -1 c-501 -6 -1050 -27 -1319 -50 -308 -27 -307 -27 -314 10 -10 45 -70
105 -121 120 -35 10 -54 9 -99 -2 l-56 -15 -50 62 c-44 53 -78 113 -69 120 2
1 28 10 58 20 221 71 418 254 461 428 9 38 15 47 28 41 9 -4 68 -23 131 -41z"/>
<path d="M2927 6018 c68 -100 62 -92 67 -87 10 10 -26 85 -56 116 -62 65 -67
53 -11 -29z"/>
<path d="M2715 5972 c-16 -11 -37 -27 -45 -37 -14 -16 -12 -17 28 -10 52 8
105 -8 131 -41 26 -34 30 -30 19 16 -11 42 -57 90 -86 90 -9 0 -30 -8 -47 -18z"/>
<path d="M2645 5821 c-16 -4 -43 -15 -60 -24 l-30 -16 55 -1 c54 0 129 -18
170 -40 11 -6 45 -31 76 -56 31 -25 58 -43 61 -40 12 11 -19 91 -45 119 -56
60 -136 80 -227 58z"/>
<path d="M2395 5529 c-54 -27 -165 -122 -165 -141 0 -4 24 10 53 32 111 84
257 139 337 126 24 -4 30 -3 20 4 -8 5 -53 10 -100 10 -75 0 -92 -4 -145 -31z"/>
<path d="M2845 5549 c70 -10 138 -34 155 -55 7 -7 17 -14 23 -14 6 0 0 11 -13
24 -31 34 -102 56 -169 55 l-56 -1 60 -9z"/>
<path d="M2848 5495 c40 -13 80 -29 88 -36 8 -6 17 -9 20 -6 11 10 -47 40
-104 53 -85 20 -87 15 -4 -11z"/>
<path d="M2577 5456 c-59 -22 -55 -24 35 -19 56 4 118 0 186 -12 57 -9 105
-15 108 -13 2 3 -28 15 -68 26 -98 29 -212 37 -261 18z"/>
<path d="M13792 6779 c-61 -10 -170 -52 -222 -84 -19 -12 -53 -42 -75 -66 -33
-37 -37 -44 -21 -47 29 -6 102 27 155 68 27 21 90 59 140 84 80 41 108 59 84
55 -5 -1 -32 -5 -61 -10z"/>
<path d="M14776 6745 c-72 -93 -93 -221 -61 -371 19 -92 35 -117 35 -57 2 129
20 313 35 353 24 62 34 110 25 110 -4 0 -20 -16 -34 -35z"/>
<path d="M14011 6464 c-102 -106 -150 -168 -138 -181 3 -2 27 7 54 20 73 38
127 100 167 195 19 45 34 82 32 82 -1 0 -53 -52 -115 -116z"/>
<path d="M13730 6471 c-83 -52 -174 -172 -210 -275 l-20 -60 27 25 c113 103
182 181 216 247 21 40 37 77 35 82 -2 5 -23 -3 -48 -19z"/>
<path d="M14264 6408 c-17 -18 -43 -50 -58 -71 -15 -21 -46 -56 -69 -79 l-42
-40 54 5 c57 5 72 17 108 82 13 24 45 135 39 135 -1 0 -16 -15 -32 -32z"/>
<path d="M13288 6387 c-37 -32 -79 -106 -92 -161 -7 -27 -6 -28 11 -16 59 45
84 78 104 137 11 36 19 66 17 68 -2 2 -20 -11 -40 -28z"/>
<path d="M14910 6194 c0 -58 26 -119 65 -154 l28 -25 -7 30 c-7 28 -73 185
-82 194 -2 2 -4 -18 -4 -45z"/>
<path d="M15280 6214 c0 -8 72 -124 76 -124 2 0 4 17 4 39 0 34 -5 42 -40 65
-22 14 -40 24 -40 20z"/>
<path d="M15139 6152 c38 -56 161 -181 201 -202 19 -10 20 -8 20 54 0 59 -3
66 -29 89 -31 25 -202 117 -220 117 -5 0 7 -26 28 -58z"/>
<path d="M13315 6164 c-64 -63 -175 -228 -175 -258 0 -3 14 0 31 6 42 14 94
68 124 127 30 60 66 153 61 159 -2 2 -21 -13 -41 -34z"/>
<path d="M14935 5890 c29 -32 118 -89 156 -100 22 -7 47 -6 73 1 l41 11 -85
28 c-47 15 -107 38 -135 51 -27 13 -54 25 -60 28 -5 2 -1 -6 10 -19z"/>
<path d="M1525 5601 c-105 -49 -198 -185 -211 -307 l-6 -59 27 54 c37 77 154
237 215 294 28 26 48 47 43 47 -4 0 -35 -13 -68 -29z"/>
<path d="M706 5444 c-155 -42 -226 -83 -271 -155 -14 -21 -25 -41 -25 -44 0
-16 163 68 211 108 20 18 74 48 119 67 131 55 117 65 -34 24z"/>
<path d="M1615 5414 c-89 -89 -125 -244 -86 -371 31 -99 38 -104 37 -26 -2
132 28 289 71 376 13 27 22 51 20 54 -3 2 -22 -12 -42 -33z"/>
<path d="M984 5213 c-3 -11 -27 -36 -52 -54 -61 -44 -126 -103 -163 -150 l-30
-38 38 6 c21 2 61 16 88 29 60 28 107 93 123 169 10 48 7 80 -4 38z"/>
<path d="M640 5151 c-24 -10 -56 -32 -70 -49 -24 -30 -83 -175 -95 -237 -5
-28 -2 -27 50 28 38 40 72 92 110 168 30 60 53 109 52 108 -1 0 -22 -8 -47
-18z"/>
<path d="M1189 5128 c-16 -48 -78 -135 -138 -193 -22 -21 -41 -43 -41 -47 0
-4 15 -8 33 -8 82 0 167 110 168 220 1 34 -1 63 -3 66 -3 2 -11 -15 -19 -38z"/>
<path d="M269 5056 c-26 -19 -56 -48 -68 -65 -26 -36 -54 -101 -47 -108 7 -8
67 31 98 64 27 28 84 143 70 143 -4 0 -28 -16 -53 -34z"/>
<path d="M1704 4908 c-42 -94 -33 -169 26 -223 l22 -20 -8 50 c-5 28 -8 96 -7
153 1 56 0 102 -1 102 -2 0 -16 -28 -32 -62z"/>
<path d="M277 4790 c-37 -41 -127 -193 -127 -215 0 -15 121 89 135 116 23 43
54 149 45 149 -5 0 -28 -22 -53 -50z"/>
<path d="M1789 4477 c15 -18 97 -51 155 -61 34 -7 122 1 114 9 -6 6 -191 53
-238 60 -40 7 -43 6 -31 -8z"/>
<path d="M2998 4003 c7 -3 16 -2 19 1 4 3 -2 6 -13 5 -11 0 -14 -3 -6 -6z"/>
<path d="M12283 3673 c3 -84 -6 -83 -26 2 l-15 60 -1 -68 c-1 -72 15 -117 67
-185 22 -29 24 -36 12 -60 -19 -40 -50 -144 -50 -167 0 -19 -6 -20 -137 -17
-135 3 -138 4 -157 29 -29 38 -122 95 -216 132 -156 63 -293 164 -332 246
l-19 40 5 -55 c3 -30 18 -81 34 -113 28 -57 29 -57 4 -35 -31 30 -71 98 -87
151 -13 39 -14 40 -14 12 -1 -46 23 -126 51 -170 14 -22 50 -63 79 -91 l54
-50 0 -105 c1 -68 6 -118 16 -145 l16 -41 -74 -17 c-161 -39 -295 -103 -462
-223 -159 -114 -141 -111 -561 -103 -273 5 -457 -29 -643 -121 -96 -48 -144
-81 -256 -174 l-87 -73 -150 -26 c-138 -24 -322 -55 -539 -90 -87 -14 -79 -14
251 -13 l342 2 -51 -74 c-28 -40 -56 -75 -61 -77 -6 -2 -101 -15 -211 -29
-193 -24 -449 -60 -605 -86 -41 -6 -79 -16 -85 -22 -7 -6 -3 -7 10 -4 38 11
828 20 824 10 -2 -5 -24 -52 -48 -105 l-43 -95 -127 -7 c-173 -9 -343 -26
-361 -37 -11 -6 -7 -9 15 -9 63 -1 337 -20 384 -26 l50 -6 -31 -62 c-48 -97
-101 -160 -153 -185 -36 -17 -139 -38 -197 -41 -4 0 -46 -75 -92 -168 -126
-248 -164 -307 -271 -422 -108 -115 -126 -148 -126 -226 0 -110 67 -174 185
-174 65 0 112 18 192 75 98 70 229 246 313 422 l33 70 97 16 c128 21 229 56
386 132 137 66 200 114 373 279 45 43 82 73 82 67 0 -26 -234 -268 -312 -323
-32 -23 -58 -47 -58 -55 0 -7 29 -69 64 -137 63 -124 170 -287 234 -358 l33
-37 -43 -5 c-24 -2 -115 -10 -203 -16 -88 -6 -214 -18 -280 -26 -114 -15 -304
-50 -312 -58 -2 -2 35 -7 83 -11 231 -19 1757 43 2726 111 488 35 532 37 600
23 107 -21 270 -18 338 5 123 41 210 127 210 205 0 41 -41 135 -73 169 -29 31
-60 47 -127 62 -78 18 -117 40 -207 116 -43 37 -120 98 -171 137 -51 38 -91
71 -89 73 2 2 28 0 57 -6 29 -5 89 -10 134 -11 138 -1 146 -4 221 -93 57 -66
79 -84 142 -114 144 -68 279 -53 339 37 24 37 26 48 21 101 -8 90 -62 169
-187 277 -97 84 -191 145 -260 171 -30 11 -118 30 -195 42 -184 29 -302 55
-321 71 -31 25 0 134 55 192 63 69 136 76 221 22 64 -42 112 -45 177 -14 83
40 195 175 248 301 l29 67 46 -25 c44 -25 72 -51 97 -90 10 -16 11 -14 2 11
-14 40 -52 79 -100 100 -42 19 -54 41 -16 29 54 -16 85 -33 115 -63 18 -18 32
-28 32 -23 0 20 -65 76 -115 98 -36 17 -44 23 -27 23 24 1 75 -21 127 -54 l30
-19 -20 23 c-21 25 -105 71 -129 71 -13 0 -26 28 -26 57 0 14 92 -15 149 -48
l36 -21 -30 26 c-29 25 -121 66 -149 66 -19 0 -34 42 -46 133 -5 44 -19 113
-31 155 -11 43 -25 94 -30 114 -13 50 -60 110 -139 177 -53 45 -67 63 -77 101
-21 81 -64 143 -184 262 -117 115 -154 168 -186 263 -13 40 -13 40 -10 -32z
m-529 -399 c53 -26 125 -71 162 -101 93 -78 164 -113 226 -113 44 0 48 2 34
15 -8 9 -34 24 -58 35 l-43 20 80 0 c93 0 171 -17 273 -58 39 -17 72 -28 72
-25 0 3 -16 27 -35 54 l-36 48 63 -26 c143 -58 190 -88 244 -155 38 -48 42
-69 18 -89 -24 -20 -14 -120 19 -186 15 -28 31 -54 37 -58 8 -5 80 -121 80
-128 -1 -8 -166 -5 -181 3 -33 18 -21 4 21 -24 23 -15 50 -41 60 -59 31 -50
26 -83 -19 -128 -37 -38 -41 -39 -107 -39 -70 0 -70 0 -163 62 -36 25 -125 23
-171 -3 l-35 -20 54 4 c88 6 127 -9 169 -64 35 -48 69 -71 38 -27 -9 12 -16
27 -16 33 0 6 3 6 8 -1 4 -6 23 -21 42 -33 44 -26 101 -27 159 -1 24 11 45 20
47 20 13 0 -93 -133 -120 -149 -49 -30 -69 -27 -160 29 -102 63 -171 79 -253
62 -115 -24 -209 -115 -234 -228 -7 -30 -16 -54 -20 -54 -5 0 -19 19 -31 43
-18 33 -23 58 -22 117 1 89 21 145 87 248 l47 72 -49 -24 c-91 -47 -185 -187
-238 -356 -3 -11 -9 -7 -20 13 -21 40 -21 211 0 305 24 110 71 196 157 286 72
76 73 78 30 51 -108 -66 -199 -185 -256 -336 l-38 -102 -15 34 c-18 43 -19
264 -2 329 7 25 28 69 47 98 20 31 29 52 22 52 -7 0 -2 9 12 20 24 19 24 20 4
20 -21 0 -34 23 -34 64 0 16 5 17 44 12 31 -5 56 -2 86 10 l43 18 -38 13 c-52
18 -99 55 -135 108 -16 24 -30 46 -30 49 0 4 21 -4 48 -18 69 -35 174 -78 178
-73 2 2 -6 16 -18 32 -20 25 -20 27 -2 22 10 -4 42 -11 69 -17 28 -5 61 -13
75 -16 44 -10 -58 73 -145 118 -44 22 -106 58 -137 79 -61 40 -70 40 -38 -1
24 -31 26 -47 3 -29 -10 7 -3 -3 16 -24 19 -20 32 -39 29 -43 -4 -3 -27 3 -52
15 -55 24 -64 42 -72 157 -6 73 -5 84 9 84 9 0 59 -21 111 -46z m-121 -408
c10 -29 28 -70 42 -90 13 -20 20 -36 15 -36 -9 0 -139 -151 -179 -207 -21 -32
-22 -33 -3 -33 11 0 36 7 56 15 20 8 36 14 36 13 0 -2 -7 -25 -15 -52 -16 -53
-19 -166 -6 -234 5 -23 22 -64 38 -90 16 -26 41 -94 56 -151 21 -82 39 -124
82 -193 30 -48 55 -91 55 -94 0 -14 -67 37 -111 84 l-48 53 14 -42 c9 -23 34
-71 56 -107 22 -35 39 -65 37 -67 -2 -2 -42 24 -88 57 -47 34 -105 72 -130 86
-25 13 -51 29 -58 35 -7 5 -15 8 -17 5 -10 -9 125 -187 168 -221 81 -66 273
-201 473 -332 110 -73 258 -177 330 -232 182 -140 187 -143 251 -153 77 -13
109 -27 129 -57 28 -44 33 -78 17 -112 -21 -42 -28 -39 -30 11 -3 52 -38 91
-99 112 l-42 14 28 -41 c41 -60 44 -118 7 -160 -31 -36 -37 -34 -25 9 13 47 5
76 -32 118 -30 33 -101 66 -144 66 -18 0 -16 -3 9 -18 40 -25 93 -86 101 -117
14 -56 -50 -96 -130 -81 -62 12 -147 79 -240 190 -127 152 -238 254 -340 314
-49 29 -90 51 -91 50 -5 -5 67 -90 120 -142 28 -27 41 -46 30 -42 -11 4 -60
21 -110 36 -187 59 -526 180 -599 213 l-75 35 6 116 c5 103 4 122 -17 183 -38
114 -193 424 -206 410 -1 -1 2 -41 6 -88 7 -70 30 -179 66 -301 5 -16 -4 -18
-88 -18 -111 0 -191 16 -353 68 -263 86 -403 91 -526 18 -33 -20 -63 -36 -67
-36 -15 0 136 143 171 161 49 26 47 31 -5 15 -134 -42 -207 -95 -398 -286
-223 -224 -318 -294 -495 -370 -141 -61 -220 -82 -312 -84 l-73 -1 -64 -120
c-150 -282 -242 -404 -336 -444 -28 -12 -61 -21 -72 -19 -19 3 -18 6 16 51 20
26 33 47 31 47 -3 0 -34 -18 -68 -39 -33 -22 -65 -37 -69 -35 -4 3 -8 18 -8
35 0 22 16 46 64 98 161 176 235 284 331 482 l60 125 73 12 c129 21 198 73
274 207 19 33 83 161 142 285 59 124 136 268 172 321 77 115 228 266 338 338
196 127 486 187 779 160 75 -7 137 -15 137 -18 -1 -8 -105 -82 -161 -115 -26
-15 -84 -40 -129 -55 -44 -16 -84 -32 -88 -36 -4 -4 48 -5 115 -3 122 4 122 4
215 51 53 27 159 96 248 163 343 258 499 336 726 363 6 0 18 -23 27 -53z
m1216 -78 c4 -13 11 -41 14 -62 6 -37 5 -38 -10 -23 -19 19 -44 87 -37 99 9
15 24 8 33 -14z m51 -353 c7 -9 10 -18 7 -22 -7 -7 -65 15 -73 28 -9 16 53 10
66 -6z m18 -51 c2 -1 -8 -24 -21 -51 l-25 -48 -6 40 c-15 88 -16 83 18 71 17
-6 32 -11 34 -12z m-500 -759 c292 -56 320 -65 394 -115 171 -115 301 -268
284 -333 -9 -36 -40 -67 -68 -67 l-21 0 21 23 c32 34 30 96 -4 136 -24 29
-131 97 -139 89 -3 -2 18 -26 45 -53 32 -31 50 -58 50 -73 0 -29 -45 -72 -76
-72 -33 0 -147 110 -230 221 -63 83 -91 109 -64 59 6 -12 10 -24 7 -26 -5 -5
-181 57 -224 80 -73 37 -163 126 -163 161 0 7 -6 8 188 -30z m-1623 -241 c50
-14 127 -29 171 -31 l82 -5 -23 -74 -23 -75 27 -14 c68 -35 262 -107 596 -222
205 -70 383 -138 413 -156 30 -18 89 -69 133 -114 l80 -83 -363 0 c-403 0
-695 -6 -1018 -21 -519 -23 -520 -23 -520 -7 0 27 -58 96 -105 123 -41 24 -53
27 -118 23 -39 -3 -79 -8 -87 -11 -10 -5 -25 8 -47 41 -17 26 -50 70 -72 97
-21 28 -41 60 -43 73 -3 21 5 26 67 48 99 35 219 97 296 153 78 58 174 181
227 292 l35 75 101 -42 c56 -24 142 -55 191 -70z"/>
<path d="M12596 3023 c15 -21 39 -51 52 -67 13 -17 29 -41 34 -55 7 -17 12
-21 15 -13 10 26 -29 102 -70 137 -53 46 -67 45 -31 -2z"/>
<path d="M12354 2939 c-22 -17 -40 -31 -41 -32 -1 -1 35 0 78 2 l80 3 45 -46
44 -46 0 35 c0 102 -121 151 -206 84z"/>
<path d="M12324 2790 c-33 -9 -68 -21 -79 -28 -17 -11 -15 -12 18 -6 60 10
122 -4 175 -40 26 -19 67 -43 90 -55 27 -14 54 -39 73 -68 28 -46 29 -46 29
-17 -2 164 -139 260 -306 214z"/>
<path d="M12105 2501 c-91 -23 -219 -113 -259 -183 l-20 -33 37 32 c51 44 171
113 245 140 48 18 86 23 160 24 l97 1 -65 14 c-71 14 -148 16 -195 5z"/>
<path d="M12568 2475 c35 -8 79 -23 98 -34 19 -11 34 -17 34 -13 0 19 -84 54
-138 58 l-57 4 63 -15z"/>
<path d="M12421 2446 c6 -6 144 -36 162 -35 7 0 -4 6 -23 13 -37 14 -148 31
-139 22z"/>
<path d="M12227 2385 c-55 -19 -54 -22 8 -17 54 4 319 -14 354 -24 13 -5 14
-4 1 4 -26 16 -213 52 -270 52 -30 -1 -72 -7 -93 -15z"/>
<path d="M11080 2526 c-72 -47 -135 -111 -180 -183 -31 -49 -74 -152 -66 -160
2 -2 21 22 43 54 21 32 79 100 128 153 90 94 150 168 144 175 -2 2 -33 -16
-69 -39z"/>
<path d="M10125 2443 c-137 -22 -261 -81 -306 -144 l-20 -29 23 -1 c54 -3 78
5 168 56 52 29 130 67 174 84 108 43 119 50 76 49 -19 -1 -71 -7 -115 -15z"/>
<path d="M11205 2358 c-20 -24 -53 -77 -73 -118 -33 -67 -36 -83 -36 -155 0
-63 4 -88 22 -120 20 -37 21 -38 16 -10 -10 53 75 392 108 433 6 6 8 12 5 12
-3 0 -22 -19 -42 -42z"/>
<path d="M10500 2204 c-7 -8 -52 -42 -99 -76 -91 -65 -161 -126 -161 -141 0
-6 18 -7 42 -3 101 16 178 78 222 179 25 55 23 74 -4 41z"/>
<path d="M10129 2195 c-101 -37 -168 -93 -222 -186 -21 -36 -57 -136 -57 -158
0 -14 119 113 168 179 30 41 78 99 106 128 27 28 48 52 46 51 -3 0 -21 -6 -41
-14z"/>
<path d="M9628 2095 c-46 -34 -90 -89 -121 -154 -10 -19 -17 -36 -17 -37 0
-12 90 50 112 77 22 28 84 150 75 149 -1 0 -23 -16 -49 -35z"/>
<path d="M10666 2046 c-25 -35 -78 -94 -118 -131 l-73 -67 45 7 c112 17 170
84 194 223 3 17 4 32 2 32 -3 0 -25 -29 -50 -64z"/>
<path d="M11280 1875 c-7 -18 -10 -61 -8 -105 3 -64 8 -83 38 -133 23 -38 36
-52 37 -40 2 10 -10 83 -26 163 -27 136 -29 143 -41 115z"/>
<path d="M9606 1795 c-51 -54 -116 -157 -116 -185 0 -14 52 13 94 51 35 30 93
154 84 180 -3 8 -26 -9 -62 -46z"/>
<path d="M11294 1402 c12 -20 80 -50 162 -73 60 -16 91 -20 141 -14 36 4 63 8
61 10 -4 4 -226 54 -287 65 -25 4 -55 11 -65 15 -14 6 -17 5 -12 -3z"/>
<path d="M4451 2885 c-1 -38 27 -98 70 -155 52 -68 56 -76 22 -52 -39 27 -92
87 -123 136 -36 59 -35 28 1 -60 35 -85 83 -145 129 -164 28 -12 29 -14 22
-54 -8 -48 -8 -156 1 -214 l7 -41 -57 -11 c-116 -24 -221 -64 -378 -144 l-160
-81 -140 5 c-292 10 -474 4 -575 -18 -193 -41 -372 -127 -499 -239 l-59 -52
-128 -11 c-228 -19 -315 -29 -519 -57 l-200 -28 295 -7 c162 -4 327 -10 367
-13 l72 -7 -44 -61 c-24 -34 -50 -70 -57 -79 -11 -15 -47 -20 -228 -33 -118
-8 -285 -22 -370 -30 -85 -9 -190 -18 -232 -22 -43 -3 -78 -9 -78 -13 0 -4 93
-10 208 -14 448 -14 622 -24 621 -34 0 -4 -24 -45 -53 -92 l-52 -85 -125 -6
c-68 -3 -171 -12 -229 -20 l-105 -13 170 -13 c94 -7 187 -16 208 -20 l38 -8
-50 -71 c-55 -79 -109 -114 -173 -114 -89 0 -92 -3 -159 -129 -114 -216 -188
-327 -300 -448 -36 -40 -74 -88 -83 -107 -28 -60 -18 -136 26 -183 20 -21 30
-23 139 -23 l117 0 49 39 c87 68 182 190 289 369 l49 82 57 0 c150 0 346 67
498 170 30 21 102 81 159 134 57 54 105 95 108 92 9 -8 -51 -91 -111 -155 -34
-35 -95 -89 -137 -120 -50 -37 -74 -61 -71 -71 30 -92 218 -406 276 -459 14
-14 26 -28 26 -31 0 -4 -37 -8 -82 -9 -114 -2 -431 -21 -514 -30 -38 -5 676
-9 1586 -9 1612 -2 1656 -1 1697 18 62 27 85 70 81 145 -3 46 -11 73 -34 110
-42 69 -81 89 -166 88 -67 -1 -72 1 -141 47 -40 27 -104 77 -142 112 -39 35
-86 74 -104 88 l-34 26 74 -3 c41 -2 121 -6 179 -9 l105 -6 88 -93 c62 -66
103 -100 142 -119 104 -49 203 -44 270 15 107 94 48 249 -157 413 -98 79 -176
118 -299 150 -80 22 -368 76 -401 76 -7 0 -9 23 -6 69 6 84 32 125 95 153 55
24 87 18 167 -30 70 -42 122 -45 191 -12 52 25 135 119 197 223 22 37 46 67
53 67 7 0 36 -25 64 -56 28 -30 51 -50 51 -43 0 7 -25 37 -56 67 -30 30 -53
56 -51 59 10 9 66 -27 91 -59 14 -18 26 -27 26 -21 0 15 -79 98 -100 105 -8 3
-12 8 -9 12 12 12 83 -24 123 -62 l39 -37 -19 34 c-19 33 -107 101 -131 101
-7 0 -13 11 -13 25 0 14 2 25 4 25 14 0 87 -36 114 -56 17 -14 32 -20 32 -14
0 16 -88 69 -127 76 -18 3 -36 11 -40 18 -4 6 -8 65 -8 131 -2 128 -14 192
-51 266 -32 65 -112 149 -189 199 -53 34 -65 47 -65 69 0 47 -48 131 -122 212
-40 43 -85 105 -101 137 l-27 57 2 -82 c3 -84 -9 -97 -22 -26 -7 33 -8 29 -9
-29 0 -37 4 -78 10 -91 8 -17 8 -35 0 -64 l-11 -40 -47 8 c-27 4 -74 8 -107 8
-58 1 -59 2 -115 59 -45 47 -79 70 -172 115 -189 92 -272 157 -322 252 l-16
30 0 -30z m292 -361 c66 -34 123 -73 213 -145 89 -72 99 -76 165 -85 l54 -6
-47 31 c-27 17 -48 34 -48 37 0 4 30 4 68 0 60 -5 179 -37 303 -81 56 -20 159
-101 189 -150 l22 -36 -21 -23 c-11 -12 -21 -31 -21 -42 0 -49 31 -128 78
-202 29 -45 52 -83 52 -86 0 -4 -11 -6 -25 -6 -14 0 -49 -12 -76 -26 l-51 -26
25 -26 c62 -68 63 -127 0 -160 -49 -26 -99 -13 -195 53 -64 45 -106 51 -165
25 -53 -23 -54 -35 -1 -18 32 9 42 8 80 -12 24 -12 58 -40 77 -62 18 -21 36
-36 39 -33 3 3 -5 17 -19 33 l-24 27 30 -26 c43 -38 68 -49 114 -49 31 0 39
-3 35 -14 -4 -11 0 -13 16 -9 20 5 21 4 11 -15 -15 -29 -63 -61 -101 -69 -27
-5 -51 4 -136 48 -86 44 -115 54 -167 57 -114 7 -221 -63 -248 -163 -27 -97
-25 -95 -44 -51 -13 30 -16 61 -13 125 3 75 8 96 41 163 20 42 49 90 63 107
29 35 26 38 -18 15 -75 -39 -220 -203 -233 -264 -10 -44 -22 -37 -34 20 -41
189 33 391 177 486 28 19 52 37 52 39 0 2 -24 -7 -52 -20 -123 -56 -220 -179
-258 -325 l-17 -65 -15 65 c-31 128 -8 279 56 377 22 34 25 47 21 90 -4 28 -2
54 3 56 4 3 27 1 50 -5 41 -10 112 -4 112 10 0 4 -16 16 -36 27 -36 19 -96 92
-113 138 -11 29 -1 36 19 12 14 -17 160 -96 160 -86 0 3 -9 21 -20 39 -23 38
-21 39 22 12 21 -12 50 -20 78 -20 l45 1 -30 16 c-16 9 -55 37 -85 62 -30 26
-86 71 -124 101 -68 54 -68 54 -51 19 10 -19 29 -51 42 -72 14 -22 22 -41 19
-44 -3 -3 -30 9 -61 28 -45 27 -56 39 -61 67 -10 55 4 162 22 162 3 0 28 -12
57 -26z m-114 -414 c6 -28 18 -64 26 -80 14 -28 14 -29 -18 -49 -40 -25 -85
-72 -127 -135 l-33 -49 41 6 c46 6 46 6 32 -43 -15 -49 -15 -167 0 -219 6 -24
22 -60 34 -80 13 -20 29 -67 35 -106 17 -93 45 -177 88 -252 19 -35 31 -63 26
-63 -12 0 -95 67 -115 93 -25 31 -22 9 6 -54 13 -30 27 -65 31 -79 l8 -24 -27
18 c-15 9 -67 39 -116 66 -74 40 -88 45 -79 27 25 -48 82 -107 151 -158 281
-204 371 -275 582 -457 172 -149 228 -180 341 -192 95 -10 134 -30 154 -79 17
-40 11 -71 -18 -89 -23 -16 -23 -16 -17 15 15 68 -45 134 -121 132 -34 0 -36
-2 -18 -12 50 -31 75 -65 75 -105 0 -45 -25 -78 -36 -46 -10 32 -37 78 -53 91
-24 20 -116 44 -135 37 -13 -5 -3 -11 33 -24 62 -21 88 -43 96 -82 5 -21 2
-35 -12 -50 -16 -18 -27 -20 -93 -16 -41 3 -89 12 -106 21 -17 9 -69 58 -114
109 -95 107 -200 203 -282 259 -71 49 -82 49 -37 3 l34 -37 -65 36 c-36 19
-76 38 -90 42 -24 7 -156 69 -427 202 l-133 65 0 96 c0 106 -10 153 -60 282
-26 67 -79 162 -106 189 -15 16 35 -235 61 -301 6 -16 -1 -18 -78 -18 -111 0
-165 11 -314 65 -68 25 -167 53 -219 62 -109 19 -146 14 -248 -38 -32 -16 -60
-28 -62 -26 -8 7 111 110 166 145 62 39 47 37 -58 -7 -92 -38 -188 -111 -348
-262 -180 -169 -322 -250 -531 -303 -57 -15 -130 -26 -166 -26 -48 0 -66 -4
-71 -15 -21 -56 -227 -365 -273 -410 -48 -48 -158 -114 -169 -102 -3 2 11 27
30 56 36 53 34 54 -20 14 -17 -12 -45 -26 -62 -29 -30 -6 -32 -4 -32 20 0 21
23 51 93 124 100 106 193 238 282 402 71 130 71 130 109 130 40 0 142 48 188
89 20 17 53 59 75 94 40 62 189 329 236 422 54 107 189 259 302 340 116 84
279 152 415 174 153 26 432 23 505 -5 22 -9 11 -21 -80 -79 -74 -48 -156 -85
-188 -85 -7 0 -30 -5 -51 -11 -55 -15 -29 -29 54 -29 132 0 188 23 445 190 83
53 179 113 215 132 127 68 302 125 392 127 36 1 37 0 47 -49z m1100 -152 c29
-81 19 -98 -17 -29 -20 37 -19 43 6 50 1 1 6 -9 11 -21z m41 -308 c0 -5 -4
-10 -9 -10 -6 0 -13 5 -16 10 -3 6 1 10 9 10 9 0 16 -4 16 -10z m-20 -35 l25
-14 -26 -1 c-15 0 -29 7 -33 15 -7 18 2 18 34 0z m30 -43 c0 -4 -14 -23 -31
-42 -28 -33 -30 -33 -25 -10 3 14 6 33 6 43 0 11 8 17 25 17 14 0 25 -4 25 -8z
m-393 -661 c105 -21 211 -48 235 -60 92 -45 290 -223 308 -276 18 -53 -14
-105 -65 -105 -14 0 -14 4 4 26 38 48 23 91 -52 145 -57 42 -64 36 -23 -20 40
-55 44 -71 19 -94 -19 -16 -35 -20 -66 -18 -29 2 -123 98 -158 160 -33 59 -67
101 -81 101 -5 0 -4 -9 2 -20 14 -25 6 -25 -30 0 -15 11 -65 36 -109 55 -88
37 -151 77 -190 119 -23 24 -23 26 -5 26 10 0 105 -18 211 -39z m-1552 -77
c60 -21 100 -28 160 -28 l81 -1 -17 -60 c-16 -58 -15 -60 5 -76 28 -22 235
-124 371 -184 229 -100 425 -194 480 -231 32 -21 94 -73 139 -115 l81 -77
-145 5 c-409 14 -832 19 -1156 15 l-360 -4 -12 39 c-14 46 -72 117 -113 138
-35 19 -109 19 -152 1 l-33 -13 -51 67 c-56 74 -77 110 -87 153 -6 25 -4 27
26 27 48 0 186 51 275 101 97 55 223 178 276 271 l39 66 56 -33 c31 -19 93
-46 137 -61z"/>
<path d="M5471 2203 c11 -15 91 -112 120 -146 3 -5 3 10 -1 32 -8 47 -20 64
-74 103 -44 32 -65 37 -45 11z"/>
<path d="M5314 2155 c-16 -6 -35 -19 -43 -28 -12 -15 -10 -17 23 -17 46 0 90
-22 137 -67 33 -31 36 -32 33 -11 -1 13 -3 35 -3 49 -1 38 -21 58 -72 73 -36
11 -51 11 -75 1z"/>
<path d="M5217 1996 c-90 -37 -90 -45 0 -25 68 16 115 -7 221 -106 89 -83 94
-82 71 10 -8 31 -24 56 -51 81 -77 69 -143 80 -241 40z"/>
<path d="M5000 1732 c-70 -23 -95 -37 -148 -80 -74 -61 -68 -74 12 -26 127 76
269 113 356 90 15 -3 11 1 -10 11 -52 24 -145 26 -210 5z"/>
<path d="M5486 1691 c22 -10 59 -30 82 -45 42 -27 57 -23 24 7 -24 22 -102 57
-127 57 -13 0 -5 -7 21 -19z"/>
<path d="M5375 1671 c17 -4 56 -22 88 -41 75 -42 83 -34 12 13 -40 27 -65 37
-92 36 -37 -1 -38 -1 -8 -8z"/>
<path d="M5140 1628 c-32 -11 -25 -13 85 -19 105 -6 166 -17 240 -44 37 -14 2
13 -53 40 -43 22 -71 27 -145 31 -55 2 -106 -1 -127 -8z"/>
<path d="M4140 1877 c-75 -37 -91 -50 -137 -112 -45 -59 -110 -191 -100 -202
2 -1 19 20 38 47 19 28 93 109 163 180 71 72 127 130 125 130 -2 0 -42 -20
-89 -43z"/>
<path d="M3293 1824 c-135 -23 -277 -85 -303 -134 -10 -18 -8 -19 20 -15 16 3
43 7 59 10 30 4 201 74 306 125 52 25 56 29 30 28 -16 0 -67 -7 -112 -14z"/>
<path d="M4206 1649 c-96 -104 -120 -167 -102 -275 l12 -69 38 115 c21 63 55
154 76 203 21 48 36 87 35 87 -2 0 -28 -27 -59 -61z"/>
<path d="M3222 1579 c-72 -36 -139 -108 -178 -192 -42 -94 -28 -102 47 -27 69
70 213 250 200 250 -4 0 -35 -14 -69 -31z"/>
<path d="M3575 1553 c-27 -19 -79 -51 -115 -73 -36 -21 -74 -48 -85 -61 l-20
-22 50 6 c115 14 156 41 202 130 13 27 23 50 21 52 -2 1 -25 -13 -53 -32z"/>
<path d="M2815 1498 c-53 -49 -141 -175 -131 -186 8 -8 83 47 120 88 39 44 80
122 74 142 -2 6 -31 -14 -63 -44z"/>
<path d="M3755 1441 c-33 -35 -88 -86 -122 -114 -35 -27 -63 -53 -63 -59 0
-12 86 0 121 18 60 30 139 159 127 207 -2 7 -29 -15 -63 -52z"/>
<path d="M4194 1285 c-5 -11 -9 -51 -8 -90 0 -61 5 -79 38 -140 36 -68 37 -69
32 -30 -6 57 -35 214 -45 250 -8 27 -9 28 -17 10z"/>
<path d="M2804 1251 c-33 -20 -154 -191 -154 -217 0 -13 4 -12 30 1 56 29 97
75 134 149 47 98 47 102 -10 67z"/>
<path d="M4291 780 c44 -38 113 -71 167 -80 48 -8 52 -3 17 23 -21 15 -196 87
-212 87 -3 0 10 -13 28 -30z"/>
<path d="M15200 2795 c-103 -19 -116 -23 -74 -24 28 -1 92 2 142 5 81 6 92 9
92 25 0 23 -1 23 -160 -6z"/>
<path d="M15195 2579 c-77 -10 -189 -27 -250 -38 l-110 -19 81 -1 c44 0 163 2
262 6 l182 6 0 34 c0 20 -5 33 -12 32 -7 -1 -76 -10 -153 -20z"/>
<path d="M15240 2314 c-114 -21 -113 -22 8 -23 106 -1 112 0 112 19 0 24 -11
24 -120 4z"/>
<path d="M15285 2094 c-27 -7 -61 -14 -73 -14 -14 0 -26 -7 -29 -18 -8 -34
-78 -187 -126 -279 -36 -68 -72 -117 -141 -191 -62 -66 -99 -114 -111 -145
-47 -123 32 -240 160 -239 123 1 211 77 353 304 42 67 42 68 42 165 l0 98 -55
-103 c-72 -137 -118 -206 -180 -268 -43 -43 -119 -94 -140 -94 -9 0 25 63 48
88 29 31 17 28 -44 -13 -63 -43 -93 -43 -97 0 -3 26 10 45 90 131 102 111 190
246 249 383 l36 86 47 9 46 9 0 54 c0 59 1 58 -75 37z"/>
<path d="M5 1858 c1 -18 7 -34 14 -36 6 -2 18 -10 25 -18 8 -8 18 -14 22 -14
4 0 -7 15 -25 34 -20 20 -28 35 -21 38 9 3 8 7 -2 16 -12 10 -14 7 -13 -20z"/>
<path d="M0 1783 c0 -12 38 -48 45 -41 3 2 -6 15 -20 28 -14 13 -25 19 -25 13z"/>
<path d="M60 1751 c0 -5 5 -13 10 -16 6 -3 10 -2 10 4 0 5 -4 13 -10 16 -5 3
-10 2 -10 -4z"/>
<path d="M0 1722 c0 -14 37 -58 44 -51 2 2 -7 18 -20 34 -13 17 -24 24 -24 17z"/>
<path d="M0 1082 c0 -46 4 -63 20 -77 38 -34 80 -108 80 -140 0 -22 -9 -40
-31 -61 l-31 -29 16 32 c24 48 20 96 -10 132 -14 17 -29 31 -32 31 -4 0 -8
-63 -10 -140 l-2 -140 42 0 c56 0 118 36 141 80 23 45 18 120 -12 183 -25 51
-96 135 -142 168 l-29 20 0 -59z"/>
<path d="M15270 25 c0 -14 4 -25 9 -25 4 0 6 11 3 25 -2 14 -6 25 -8 25 -2 0
-4 -11 -4 -25z"/>
<path d="M15332 25 c0 -17 2 -22 5 -12 2 9 2 23 0 30 -3 6 -5 -1 -5 -18z"/>
</g>
</svg>
