<?xml version="1.0" standalone="no"?>
<!DOCTYPE svg PUBLIC "-//W3C//DTD SVG 20010904//EN"
 "http://www.w3.org/TR/2001/REC-SVG-20010904/DTD/svg10.dtd">
<svg version="1.0" xmlns="http://www.w3.org/2000/svg"
 width="1024.000000pt" height="1024.000000pt" viewBox="0 0 1024.000000 1024.000000"
 preserveAspectRatio="xMidYMid meet">

<g transform="translate(0.000000,1024.000000) scale(0.100000,-0.100000)"
fill="#000000" stroke="none">
<path d="M7482 8593 c-9 -22 -18 -74 -20 -125 -5 -99 12 -171 60 -259 l31 -56
-47 -49 c-46 -47 -116 -173 -116 -209 0 -21 -23 -20 -280 16 l-155 22 -66 61
c-79 73 -187 147 -364 249 -71 42 -148 86 -170 99 -60 35 -183 164 -216 227
l-29 56 6 -55 c4 -30 17 -83 29 -117 13 -36 17 -59 10 -57 -15 6 -72 101 -95
160 l-19 49 -1 -52 c0 -63 44 -191 89 -257 28 -40 75 -86 150 -144 l23 -18
-16 -78 c-19 -92 -20 -223 -2 -321 7 -38 12 -73 10 -76 -2 -3 -48 -9 -102 -12
-122 -8 -250 -40 -407 -102 -117 -46 -336 -158 -424 -218 -25 -17 -81 -43
-125 -59 -102 -35 -219 -37 -404 -7 -232 37 -403 48 -597 38 -228 -12 -296
-22 -481 -74 -254 -72 -459 -176 -627 -316 l-67 -56 -118 -7 c-64 -3 -272 -13
-462 -21 -190 -8 -385 -17 -435 -19 -258 -15 -300 -18 -303 -21 -5 -5 340 -31
788 -60 129 -8 267 -17 307 -21 l71 -6 -85 -121 c-47 -67 -90 -125 -95 -128
-12 -8 -287 -23 -958 -54 -63 -3 -140 -8 -170 -10 -30 -3 -144 -10 -253 -14
-185 -8 -219 -13 -205 -27 9 -8 517 -40 1008 -64 124 -5 280 -13 348 -16 136
-7 135 -6 103 -77 -10 -23 -38 -85 -61 -137 -24 -52 -45 -98 -49 -101 -3 -4
-67 -9 -141 -13 -74 -4 -196 -11 -270 -16 -74 -5 -187 -10 -250 -11 -146 -2
-94 -14 95 -23 252 -12 480 -28 503 -37 l23 -9 -22 -42 c-73 -144 -168 -250
-269 -300 -64 -32 -152 -56 -264 -72 l-80 -12 -46 -84 c-133 -243 -218 -384
-333 -550 -47 -68 -182 -201 -271 -265 -155 -113 -197 -178 -204 -312 -4 -76
-2 -88 24 -139 36 -71 109 -137 177 -160 73 -25 203 -22 286 6 113 38 197 96
327 225 105 105 146 156 263 325 13 19 55 91 93 160 39 69 73 128 77 133 4 4
59 12 122 18 248 23 555 106 754 204 143 71 260 156 413 301 117 111 124 116
117 83 -36 -163 -283 -376 -557 -479 l-56 -21 43 -93 c91 -196 252 -464 411
-683 41 -56 74 -104 74 -107 0 -11 -74 -16 -377 -26 -581 -18 -1125 -55 -1190
-81 l-28 -11 25 -10 c71 -27 255 -43 775 -65 442 -18 2905 -26 3545 -11 217 5
584 10 815 11 374 2 425 0 470 -15 89 -31 169 -38 284 -27 162 16 316 62 376
112 116 95 126 269 25 427 -53 81 -84 100 -201 121 -129 23 -197 60 -286 153
-37 40 -83 91 -100 114 -28 34 -190 176 -297 260 -16 12 -26 25 -23 28 3 4 70
-3 149 -15 79 -12 187 -25 240 -30 62 -6 108 -16 128 -28 18 -10 62 -61 100
-113 154 -216 302 -299 531 -300 74 0 93 4 139 28 92 46 148 152 137 259 -12
119 -105 242 -342 455 -238 215 -397 284 -896 387 l-234 48 3 64 c7 167 104
333 206 352 47 8 87 -9 165 -73 89 -72 133 -87 208 -70 103 23 242 143 388
335 38 50 83 109 101 132 18 23 34 47 36 54 3 9 18 6 53 -11 59 -29 120 -82
142 -124 9 -17 18 -26 20 -20 12 35 -91 154 -161 185 -24 11 -34 37 -20 51 11
11 125 -37 172 -72 26 -20 57 -53 69 -75 17 -30 23 -35 23 -19 0 32 -54 107
-103 142 -25 17 -70 39 -101 49 -47 14 -56 21 -56 40 0 27 8 28 74 8 71 -21
69 -10 -2 22 -67 31 -77 43 -34 43 63 0 158 -35 200 -73 12 -11 22 -15 22 -9
0 13 -51 52 -99 77 -19 10 -66 23 -104 29 l-69 12 -23 71 c-19 62 -21 85 -17
196 3 92 1 143 -11 194 -9 37 -18 91 -21 120 -3 28 -15 71 -27 95 -26 52 -139
164 -246 244 l-78 59 -8 64 c-10 79 -56 201 -106 278 -21 32 -73 97 -115 144
-152 167 -215 288 -203 391 4 27 2 46 -2 43 -13 -8 -31 -89 -32 -147 l-1 -53
-15 35 c-10 22 -16 66 -17 117 -1 46 -2 83 -4 83 -2 0 -10 -17 -20 -37z m-909
-540 c117 -73 166 -110 247 -187 95 -91 208 -173 278 -201 67 -27 142 -42 142
-29 0 5 -24 22 -53 38 -90 50 -192 119 -180 123 6 2 42 -5 78 -16 37 -12 123
-30 193 -41 70 -12 154 -30 188 -40 65 -20 313 -138 353 -167 23 -17 24 -17
13 2 -21 40 -99 100 -205 159 -38 21 -66 40 -64 43 19 18 395 -133 428 -173 6
-8 18 -14 26 -14 8 0 12 -4 9 -9 -3 -5 1 -12 10 -15 10 -4 13 -2 7 6 -4 7 24
-17 62 -54 39 -37 78 -80 88 -97 l18 -30 -30 -15 c-35 -19 -71 -88 -71 -140 0
-42 42 -175 69 -221 10 -16 41 -68 70 -114 28 -46 51 -88 51 -91 0 -4 -19 -5
-43 -3 -35 4 -51 0 -96 -28 -49 -31 -52 -35 -46 -64 4 -16 11 -48 15 -69 4
-22 15 -45 24 -52 24 -17 12 -52 -34 -102 -56 -62 -118 -87 -211 -86 -89 1
-113 12 -214 100 -82 71 -97 78 -139 65 -17 -6 -59 -15 -94 -22 -69 -13 -102
-37 -36 -26 21 4 62 10 89 13 l51 6 87 -86 c112 -112 161 -136 275 -136 67 0
97 5 148 26 36 14 68 23 71 20 8 -8 -52 -80 -119 -140 -71 -65 -133 -96 -188
-96 -37 0 -48 7 -114 69 -85 81 -111 95 -213 122 -114 29 -237 26 -321 -7
-146 -58 -275 -192 -319 -331 -9 -30 -22 -52 -27 -50 -32 11 -44 194 -22 323
17 98 34 141 82 207 47 66 51 70 105 131 25 28 52 61 58 74 12 22 10 22 -46
-9 -90 -49 -153 -100 -224 -180 -117 -132 -185 -239 -220 -344 l-13 -40 -8 40
c-4 22 -10 87 -14 145 -9 150 18 276 92 425 63 127 108 186 219 281 43 38 95
84 115 103 32 30 33 32 10 26 -14 -4 -41 -16 -60 -26 -19 -11 -39 -19 -45 -19
-17 0 -137 -87 -208 -152 -96 -86 -198 -245 -252 -391 -26 -68 -35 -44 -35 94
0 152 22 279 59 339 16 25 32 56 36 69 7 22 6 22 -19 6 -35 -23 -33 -4 3 31
16 16 54 62 85 103 55 74 56 75 37 95 -10 12 -31 41 -46 65 l-27 44 23 -8 c13
-5 58 -10 100 -12 63 -4 84 -1 117 16 22 11 43 25 46 29 3 5 -23 23 -57 39
-34 17 -74 44 -88 59 -15 16 -45 45 -68 64 -59 49 -109 126 -121 185 -26 128
-30 164 -25 225 9 94 28 180 41 180 2 0 46 -26 97 -57z m-166 -620 c3 -10 14
-29 23 -43 17 -25 32 -80 21 -80 -3 0 -15 12 -28 28 -21 26 -22 26 -23 5 0
-22 38 -113 62 -144 10 -15 -7 -36 -115 -150 -70 -74 -143 -149 -163 -167 -44
-38 -39 -49 13 -34 21 5 57 13 80 17 l42 7 -10 -34 c-80 -268 -59 -477 61
-633 22 -29 40 -63 40 -76 1 -29 34 -126 83 -236 27 -61 32 -80 20 -76 -14 6
-15 -1 -9 -48 15 -118 18 -169 10 -169 -21 1 -116 110 -144 165 -55 110 -29
-17 35 -169 18 -43 14 -57 -12 -34 -19 17 -83 61 -208 146 -44 30 -87 60 -96
68 -8 8 -23 14 -32 14 -13 0 -15 -6 -10 -32 14 -73 50 -133 124 -205 76 -73
122 -113 133 -113 4 0 36 -18 72 -40 36 -22 68 -40 69 -40 11 0 485 -323 563
-383 155 -120 212 -163 342 -256 146 -104 164 -121 233 -209 52 -66 184 -173
245 -199 18 -7 81 -25 140 -39 145 -35 162 -46 203 -126 25 -49 24 -91 -3
-139 -29 -52 -44 -50 -46 7 -1 25 -9 62 -18 82 -20 50 -112 142 -141 142 -13
0 -23 -4 -23 -10 0 -5 4 -10 8 -10 5 0 21 -26 36 -59 25 -51 28 -67 24 -126
-3 -56 -8 -70 -28 -85 -13 -10 -36 -20 -51 -22 -26 -4 -27 -3 -33 70 -8 88
-37 134 -101 163 -46 21 -66 23 -118 8 -44 -12 -40 -29 7 -27 56 2 118 -55
127 -117 9 -66 -39 -125 -103 -125 -75 0 -141 30 -258 118 -144 109 -179 145
-266 273 -62 93 -222 268 -309 340 -124 102 -218 159 -261 159 -8 0 -14 5 -14
10 0 6 -7 10 -15 10 -9 0 39 -53 105 -119 66 -65 120 -121 120 -124 0 -3 -45
17 -101 44 -119 58 -250 111 -345 138 -77 21 -249 82 -279 99 -11 5 -60 29
-110 52 -103 47 -275 142 -322 177 -27 21 -32 32 -38 86 -17 165 -53 343 -112
557 -25 91 -50 184 -55 206 -8 38 -22 79 -75 222 -20 53 -38 80 -48 70 -22
-21 3 -425 36 -577 18 -87 27 -84 -199 -78 -190 5 -201 6 -312 40 -63 20 -174
58 -247 85 -208 78 -295 97 -448 97 -119 -1 -136 -3 -196 -28 -36 -15 -69 -27
-73 -27 -18 0 51 72 107 111 80 57 130 79 178 79 40 0 58 15 41 32 -13 13
-144 -12 -227 -43 -91 -34 -256 -130 -336 -196 -41 -34 -150 -139 -244 -235
-185 -189 -255 -247 -367 -307 -145 -78 -460 -178 -651 -207 -89 -13 -203 -15
-261 -3 -20 4 -36 -22 -124 -195 -117 -235 -324 -507 -459 -607 -93 -69 -163
-99 -232 -99 -63 0 -127 22 -116 40 4 6 12 10 19 10 20 0 136 62 136 72 0 5
-8 8 -17 6 -10 -1 -24 1 -31 5 -7 5 -31 1 -56 -8 -23 -9 -60 -15 -82 -13 l-39
3 1 47 c0 60 12 73 139 156 110 71 246 205 346 339 54 73 237 368 291 468 14
27 32 53 40 56 7 4 58 17 113 29 181 41 333 134 441 271 63 79 119 180 209
374 152 330 267 539 356 651 96 120 267 256 434 342 166 86 403 160 585 182
105 12 452 13 580 0 108 -10 215 -32 185 -37 -54 -10 -65 -15 -65 -28 0 -9 10
-15 28 -16 22 -1 18 -4 -19 -15 -56 -17 -76 -53 -31 -55 l27 -1 -31 -13 c-18
-8 -67 -24 -110 -35 -236 -64 -340 -90 -360 -90 -53 0 -28 -18 41 -30 236 -40
516 49 975 310 452 258 666 346 880 360 193 13 220 12 227 -7z m1842 -280 c34
-20 39 -29 42 -88 4 -80 0 -110 -13 -97 -14 14 -20 35 -22 79 -1 17 -11 42
-22 55 -25 27 -40 68 -25 68 5 0 23 -8 40 -17z m51 -431 c0 -4 -12 -25 -27
-47 -23 -34 -28 -37 -31 -20 -2 11 -13 30 -24 41 -15 17 -16 23 -6 27 21 8 88
8 88 -1z m40 -136 c0 -34 -21 -66 -42 -66 -6 0 -5 -6 2 -16 11 -13 10 -18 -7
-35 -20 -20 -87 -42 -97 -31 -4 3 -6 22 -6 43 0 30 4 38 23 42 12 4 42 27 67
52 24 25 48 45 52 45 4 0 8 -15 8 -34z m-849 -1150 c216 -43 468 -108 534
-137 83 -36 206 -125 284 -204 53 -53 77 -72 83 -63 6 11 8 10 8 0 0 -7 7 -15
15 -18 26 -10 169 -163 193 -206 29 -53 28 -85 -3 -131 -27 -39 -59 -53 -101
-43 l-25 7 19 32 c41 67 35 132 -19 212 -24 36 -136 121 -145 112 -3 -3 15
-36 40 -73 59 -85 63 -102 37 -153 -24 -46 -41 -58 -98 -67 -51 -8 -124 22
-149 63 -10 15 -21 30 -25 33 -3 3 -25 34 -49 70 -24 36 -56 81 -71 100 -16
19 -40 61 -54 93 -22 50 -28 57 -41 46 -8 -7 -13 -18 -10 -25 4 -10 -6 -9 -42
2 -26 9 -61 20 -78 25 -17 5 -68 27 -113 49 -45 22 -83 40 -86 40 -10 0 -164
107 -200 138 -52 47 -94 102 -95 125 0 10 4 16 8 13 5 -3 87 -21 183 -40z
m-2693 -65 c86 -43 198 -93 247 -111 88 -31 297 -80 343 -80 12 0 25 -6 27
-13 3 -7 -8 -52 -25 -102 -16 -49 -30 -96 -30 -104 0 -11 31 -28 93 -53 50
-20 211 -84 357 -143 239 -96 342 -135 620 -233 386 -137 564 -231 632 -336
49 -75 91 -128 162 -203 38 -40 66 -76 63 -79 -3 -4 -97 -1 -209 5 -623 34
-1601 61 -2200 61 -223 0 -413 3 -422 6 -9 4 -16 18 -16 34 0 43 -66 164 -111
205 -89 80 -231 115 -347 85 l-47 -12 -67 71 c-134 143 -222 277 -202 308 6 9
66 35 135 58 311 105 475 200 597 349 60 72 164 232 211 324 12 23 24 42 26
42 3 0 76 -36 163 -79z"/>
<path d="M6535 7873 c8 -27 15 -49 15 -50 0 -1 -7 0 -15 3 -24 10 -18 -4 30
-68 41 -55 53 -78 40 -78 -2 0 -30 11 -61 25 -32 14 -59 24 -61 22 -7 -8 17
-53 46 -86 29 -32 113 -91 130 -91 4 0 26 -18 49 -40 52 -51 64 -51 56 0 l-7
41 54 -22 c30 -12 72 -26 94 -31 38 -10 114 -12 122 -4 10 10 -12 35 -35 41
-70 17 -161 83 -283 205 -69 69 -134 137 -144 153 -9 15 -23 27 -31 27 -11 0
-11 -8 1 -47z"/>
<path d="M7910 7533 c0 -5 6 -17 13 -28 8 -11 24 -47 37 -80 25 -62 70 -139
77 -131 11 11 -21 119 -50 166 -30 49 -77 94 -77 73z"/>
<path d="M7568 7419 c-14 -8 -15 -14 -6 -34 6 -14 17 -25 25 -25 20 0 134 -49
165 -72 29 -20 68 -17 68 5 0 7 -14 30 -32 51 -54 65 -169 105 -220 75z"/>
<path d="M7435 7204 c-124 -34 -289 -114 -271 -131 3 -3 40 6 83 20 156 51
353 66 353 26 0 -15 -34 -49 -48 -49 -7 0 -10 -4 -7 -10 3 -5 14 -10 23 -10
10 0 37 -11 62 -24 25 -13 65 -30 90 -37 49 -14 102 -44 137 -78 12 -12 29
-21 37 -21 8 0 19 -7 24 -16 21 -37 21 8 1 68 -57 170 -119 243 -235 273 -80
21 -143 18 -249 -11z"/>
<path d="M7012 6780 c-94 -25 -159 -61 -230 -126 -76 -71 -59 -71 103 1 110
49 269 83 432 94 l118 7 -40 18 c-63 29 -288 32 -383 6z"/>
<path d="M7800 6743 c0 -10 66 -42 118 -58 35 -10 25 26 -12 44 -37 18 -106
27 -106 14z"/>
<path d="M7690 6675 c0 -9 145 -75 164 -75 28 0 2 27 -56 56 -41 21 -108 33
-108 19z"/>
<path d="M7200 6630 c-17 -5 2 -8 60 -9 111 -1 263 -25 375 -57 125 -37 168
-45 155 -29 -15 18 -139 63 -238 86 -87 20 -300 26 -352 9z"/>
<path d="M5546 7028 c3 -5 -7 -8 -22 -8 -35 0 -115 -61 -204 -157 -71 -76
-160 -235 -160 -284 0 -22 4 -19 38 21 47 58 191 200 314 312 111 101 123 123
67 123 -20 0 -35 -3 -33 -7z"/>
<path d="M4080 6933 c-112 -9 -271 -33 -316 -49 -69 -23 -176 -78 -196 -101
-21 -23 -13 -63 12 -63 19 0 159 42 290 88 47 16 159 49 250 72 91 23 169 46
175 51 9 9 -117 10 -215 2z"/>
<path d="M5725 6721 c-40 -24 -135 -150 -174 -231 -17 -36 -35 -89 -41 -119
-12 -66 -13 -218 -1 -225 13 -9 29 16 29 45 -1 31 74 271 106 343 21 46 79
140 107 174 20 24 4 32 -26 13z"/>
<path d="M4030 6594 c0 -6 -16 -16 -35 -23 -19 -7 -35 -16 -35 -21 0 -5 -10
-12 -22 -15 -50 -15 -92 -62 -191 -213 -58 -86 -114 -176 -125 -199 -25 -48
-52 -123 -45 -123 3 0 28 17 55 37 78 57 368 435 368 479 0 8 10 28 22 44 12
16 19 33 15 37 -4 3 -7 2 -7 -3z"/>
<path d="M4618 6488 c-4 -8 -46 -36 -95 -62 -184 -97 -289 -168 -277 -187 9
-16 99 -10 165 11 50 15 74 30 110 67 49 50 113 156 106 176 -2 6 -6 5 -9 -5z"/>
<path d="M3335 6399 c-27 -16 -81 -41 -120 -56 -56 -22 -83 -41 -137 -95 -38
-37 -68 -74 -68 -82 0 -31 49 -27 124 9 60 29 86 49 146 118 41 45 85 94 99
110 31 34 20 33 -44 -4z"/>
<path d="M4966 6373 c-29 -46 -53 -68 -131 -120 -118 -79 -252 -219 -230 -241
3 -3 24 1 47 8 24 7 52 14 64 15 84 10 209 157 258 303 14 39 23 72 21 72 -3
0 -16 -17 -29 -37z"/>
<path d="M3302 6045 c-18 -19 -47 -43 -63 -52 -21 -12 -48 -51 -86 -123 -31
-58 -66 -118 -78 -135 -39 -54 -42 -62 -15 -43 14 9 48 29 77 43 57 28 123 97
155 159 17 33 58 162 58 181 0 13 -18 2 -48 -30z"/>
<path d="M5741 5911 c-57 -72 -75 -223 -38 -309 16 -36 69 -124 72 -120 2 2 0
73 -5 158 -7 149 -6 191 5 273 3 20 3 37 1 37 -2 0 -18 -17 -35 -39z"/>
<path d="M5860 5183 c0 -16 79 -52 159 -73 111 -28 226 -36 278 -18 l43 14
-78 22 c-148 41 -402 76 -402 55z"/>
<path d="M1666 3378 c-3 -7 -7 -35 -11 -63 -3 -27 -10 -72 -15 -100 -5 -27
-21 -124 -35 -215 -14 -91 -30 -194 -36 -230 -5 -36 -32 -204 -59 -375 -27
-170 -52 -332 -55 -360 -4 -27 -9 -58 -12 -67 -4 -17 8 -18 156 -18 143 0 160
2 165 18 5 17 27 146 68 392 11 69 25 131 31 138 7 9 34 12 91 10 l81 -3 23
-45 c58 -115 232 -482 232 -490 0 -5 12 -13 27 -16 29 -8 306 2 340 12 21 6
21 6 -7 52 -15 26 -65 112 -110 192 -94 164 -132 228 -168 283 -29 43 -25 51
37 62 52 10 144 68 190 122 122 138 164 345 101 491 -31 71 -120 152 -209 189
l-66 27 -378 4 c-304 2 -378 1 -381 -10z m630 -260 c141 -67 133 -255 -15
-340 -52 -30 -56 -31 -217 -36 l-164 -5 0 26 c0 39 50 338 60 364 9 22 12 23
148 19 120 -4 146 -7 188 -28z"/>
<path d="M5715 3313 c-571 -1155 -637 -1289 -649 -1330 -7 -23 -7 -23 123 -25
72 -1 146 -2 164 -2 32 -1 33 1 107 151 41 83 81 159 89 167 12 14 48 16 260
16 135 0 251 -4 258 -8 6 -4 23 -77 37 -161 14 -85 28 -156 30 -158 3 -3 77
-7 165 -10 153 -6 161 -5 161 13 0 20 -53 283 -114 574 -61 286 -136 652 -152
735 -24 125 -3 115 -238 115 l-203 0 -38 -77z m229 -365 c15 -70 58 -292 72
-370 l6 -38 -176 0 c-97 0 -176 2 -176 4 0 1 52 109 115 240 70 144 121 236
129 236 10 0 20 -24 30 -72z"/>
<path d="M4595 3036 c-57 -18 -104 -43 -154 -84 l-43 -35 3 49 4 49 -150 0
-150 0 -11 -60 c-12 -63 -24 -142 -74 -475 -17 -113 -37 -245 -45 -295 -8 -49
-17 -120 -21 -157 l-7 -68 156 0 155 0 6 28 c4 15 26 161 50 325 53 362 64
393 160 441 70 36 142 39 202 10 54 -27 68 -73 54 -179 -20 -150 -50 -360 -64
-460 -9 -55 -16 -115 -16 -132 l0 -33 149 0 149 0 6 28 c3 15 17 106 31 202
14 96 32 213 40 260 30 178 40 307 27 367 -23 110 -91 186 -196 218 -60 18
-205 19 -261 1z"/>
<path d="M7190 3024 c-30 -8 -83 -30 -118 -49 -34 -19 -64 -35 -66 -35 -2 0
-2 18 1 40 l6 40 -150 0 -149 0 -27 -167 c-14 -93 -40 -260 -57 -373 -54 -359
-133 -861 -146 -924 l-6 -29 151 5 c83 3 154 8 157 11 9 9 21 72 48 257 15 96
29 187 32 203 l6 27 30 -25 c60 -51 108 -68 203 -73 165 -8 278 33 393 146
138 135 223 389 210 620 -8 131 -37 193 -122 259 -97 75 -261 103 -396 67z
m75 -225 c22 -6 57 -27 77 -47 56 -54 64 -106 38 -257 -32 -184 -85 -278 -177
-309 -113 -39 -223 -4 -259 81 -30 70 -9 286 38 395 22 52 81 112 132 134 38
16 97 18 151 3z"/>
<path d="M8359 3017 c-37 -13 -85 -35 -108 -50 -22 -15 -43 -27 -45 -27 -3 0
-4 17 -3 38 l2 37 -146 3 -147 3 -11 -63 c-13 -78 -34 -211 -136 -898 -14 -91
-30 -192 -35 -225 -6 -33 -17 -103 -25 -155 -8 -52 -17 -107 -21 -122 l-5 -27
88 0 c48 0 120 2 159 5 l71 6 18 107 c9 58 25 166 35 239 10 74 21 136 24 139
3 3 19 -7 37 -21 69 -59 126 -77 237 -77 142 0 265 54 366 161 103 110 149
208 180 385 30 172 12 335 -48 425 -32 48 -99 95 -173 121 -82 28 -226 26
-314 -4z m113 -229 c21 -6 55 -26 75 -43 33 -28 37 -37 41 -92 5 -67 -18 -231
-44 -310 -22 -68 -64 -118 -127 -149 -43 -22 -61 -25 -118 -22 -150 8 -194
103 -155 334 34 201 109 290 245 293 24 1 61 -4 83 -11z"/>
<path d="M3596 2973 c-44 -311 -99 -608 -118 -648 -46 -91 -97 -118 -214 -113
-71 3 -86 6 -108 27 -57 54 -56 114 15 561 16 102 29 191 29 198 0 10 -35 12
-157 10 l-158 -3 -12 -80 c-6 -44 -23 -154 -37 -245 -62 -395 -69 -515 -37
-585 48 -107 128 -155 267 -163 133 -7 236 27 337 111 26 22 50 37 53 34 3 -3
1 -29 -4 -58 -6 -30 -8 -56 -5 -59 8 -8 192 -12 248 -5 52 6 54 7 59 43 3 20
21 134 40 252 19 118 42 267 51 330 9 63 28 183 41 267 13 84 24 157 24 162 0
7 -53 11 -154 11 l-154 0 -6 -47z"/>
</g>
</svg>
